<?xml version="1.0" encoding="UTF-8"?>
<svg width="115px" height="115px" viewBox="0 0 115 115" version="1.1" xmlns="http://www.w3.org/2000/svg" xmlns:xlink="http://www.w3.org/1999/xlink">
    <title>927AA5C4-FC13-4984-8E1B-3EFDCF38A809</title>
    <defs>
        <linearGradient x1="24.229229%" y1="86.5011769%" x2="75.7687879%" y2="18.2348295%" id="linearGradient-1">
            <stop stop-color="#E15B11" offset="0%"></stop>
            <stop stop-color="#EB9845" offset="54%"></stop>
            <stop stop-color="#FFCE8E" offset="65%"></stop>
            <stop stop-color="#FFB677" offset="73%"></stop>
            <stop stop-color="#EF7D3F" offset="100%"></stop>
        </linearGradient>
        <linearGradient x1="29.5935949%" y1="96.3094243%" x2="68.9884673%" y2="5.92855231%" id="linearGradient-2">
            <stop stop-color="#E15B11" offset="0%"></stop>
            <stop stop-color="#EB9845" offset="54%"></stop>
            <stop stop-color="#FFCE8E" offset="64%"></stop>
            <stop stop-color="#FFB677" offset="72%"></stop>
            <stop stop-color="#EF7D3F" offset="100%"></stop>
        </linearGradient>
        <linearGradient x1="27.9265631%" y1="81.5970581%" x2="75.6425398%" y2="18.2453375%" id="linearGradient-3">
            <stop stop-color="#EB9845" offset="0%"></stop>
            <stop stop-color="#FFB677" offset="37%"></stop>
            <stop stop-color="#F8B789" offset="62%"></stop>
            <stop stop-color="#EF8F32" offset="84%"></stop>
            <stop stop-color="#F7BF88" offset="100%"></stop>
        </linearGradient>
    </defs>
    <g id="Desktop-UI" stroke="none" stroke-width="1" fill="none" fill-rule="evenodd">
        <g id="Class-Overview" transform="translate(-119.000000, -2538.000000)">
            <g id="Footer" transform="translate(0.000000, 2473.000000)">
                <g id="footer_rugby_masters_logo" transform="translate(119.000000, 65.000000)">
                    <rect id="Rectangle" x="0" y="0" width="115" height="115"></rect>
                    <path d="M40.2144768,27.42048 C39.2826424,25.8425435 38.4648632,24.1999783 37.7673984,22.5053568 C37.4177962,23.3910207 37.1178113,24.2954751 36.8688384,25.2145152 C37.4873472,26.3002752 38.6015616,28.1378304 39.8221056,29.6159616 C39.9239424,28.8861312 40.0547328,28.154304 40.2144768,27.42048 Z M45.2853504,15.9653376 C45.1095644,14.7769323 44.995096,13.5802628 44.9424,12.3800832 C44.4432,12.8503296 43.9554816,13.333056 43.4792448,13.8282624 C43.6525999,15.104572 43.8910289,16.3711948 44.1936,17.6231808 C44.5400448,17.0660736 44.9039616,16.5134592 45.2853504,15.9653376 L45.2853504,15.9653376 Z M74.602368,29.951424 C75.9337344,28.4253696 77.1737472,26.3826432 77.8416768,25.2145152 C77.5927012,24.2959664 77.2927159,23.3920105 76.9431168,22.5068544 C75.7540224,25.3103616 74.7700992,27.0221184 74.153088,27.9656064 C74.3283072,28.6275456 74.4765696,29.2894848 74.602368,29.951424 Z M60.2418816,38.1103488 L57.8322432,38.1103488 L57.8322432,35.889408 L60.2418816,35.889408 L60.2418816,34.7377536 L57.8322432,34.7377536 L57.8322432,32.51232 L60.2418816,32.51232 L60.2418816,31.3606656 L57.8322432,31.3606656 L57.8322432,29.1442176 L60.2418816,29.1442176 L60.2418816,27.9910656 L57.8322432,27.9910656 L57.8322432,25.77312 L60.2418816,25.77312 L60.2418816,24.619968 L54.4686336,24.619968 L54.4686336,25.77312 L56.878272,25.77312 L56.878272,27.9925632 L54.4686336,27.9925632 L54.4686336,29.1457152 L56.878272,29.1457152 L56.878272,31.366656 L54.4686336,31.366656 L54.4686336,32.51232 L56.878272,32.51232 L56.878272,34.7332608 L54.4686336,34.7332608 L54.4686336,35.8849152 L56.878272,35.8849152 L56.878272,38.105856 L54.4686336,38.105856 L54.4686336,39.2575104 L60.2418816,39.2575104 L60.2418816,38.1103488 Z M42.24672,21.3012864 C41.7084016,19.8388678 41.2691115,18.3418791 40.9318272,16.8204672 C40.4185986,17.512693 39.9407515,18.2304632 39.5001216,18.9710208 C40.0373178,20.4847966 40.6690507,21.9633417 41.3915904,23.3979264 C41.64768,22.6940544 41.9382144,21.9931776 42.24672,21.3012864 Z M48.5126784,12.0536064 C48.596544,10.7491968 48.791232,9.456768 48.866112,9 C48.5875584,9.22464 47.1648384,10.542528 47.1648384,10.542528 C47.1648384,11.6222976 47.2307328,12.5987328 47.30112,13.3744896 C47.6924928,12.9242112 48.097344,12.4839168 48.5156736,12.0536064 L48.5126784,12.0536064 Z M39.7412352,36.2952576 C39.66336,35.5269888 39.610944,34.7452416 39.5914752,33.9455232 C39.2335488,33.59808 38.8037376,33.1577856 38.3200128,32.6111616 C37.4848092,31.6924068 36.7217624,30.7105598 36.0376704,29.674368 C35.926848,30.6747648 35.8609536,31.72608 35.8339968,32.819328 C36.503424,33.5172096 38.173248,35.178048 39.7412352,36.2952576 Z M60.6911616,60.824448 L60.3916416,61.0386048 L58.6783872,62.1827712 L63.288,65.2588416 C64.0257714,65.7482252 64.8916854,66.0087288 65.7770112,66.007645 L69.1241472,66.007645 L60.6911616,60.824448 Z M65.174976,57.2107392 C64.4621184,57.8756736 63.7228032,58.5151488 62.9570304,59.1291648 C64.8559872,59.5874304 66.7639296,59.8779648 67.8526848,60.0277248 C68.9129856,59.416704 70.0062336,58.4627328 71.0725248,57.22272 C70.4600064,57.267648 69.5120256,57.3155712 68.177664,57.3290496 C67.1323392,57.33504 66.0690432,57.2796288 65.174976,57.2107392 Z M77.4897408,44.3718144 C77.0254848,44.5919616 76.3440768,44.8989696 75.3616512,45.3063168 C74.4046848,45.7031808 73.5795072,45.9847296 72.9235584,46.1839104 C72.5629145,47.0736647 72.1570348,47.9444067 71.7075072,48.7927296 C74.0812032,48.4662528 75.6536832,47.9795328 76.4204544,47.7009792 C76.8158208,46.6286976 77.1752448,45.5174784 77.4897408,44.3718144 L77.4897408,44.3718144 Z M75.0321792,50.9882112 C73.3276663,51.4125388 71.592691,51.7034538 69.8429952,51.8583168 C69.2589312,52.6989696 68.634432,53.5091712 67.9694976,54.2889216 C69.7326907,54.4098949 71.5028547,54.385351 73.262016,54.2155392 C73.9110757,53.1731957 74.5020312,52.0957768 75.0321792,50.9882112 Z M40.4675712,40.5184896 C39.4551936,39.9284352 37.9216512,38.9010816 35.9463168,37.1683584 C36.0361728,38.2915584 36.1754496,39.4042752 36.361152,40.4975232 C37.8660015,41.4209142 39.4612377,42.1881732 41.1220224,42.7873536 C40.8734208,42.0505344 40.6552704,41.2942464 40.4675712,40.5184896 Z M74.1066624,42.5971584 C75.5809032,42.0269105 77.0008588,41.3252029 78.3493632,40.5005184 C78.5350656,39.4022784 78.673344,38.2915584 78.7641984,37.1683584 C77.466845,38.3253268 76.075802,39.3727416 74.6053632,40.29984 C74.4695808,41.0845824 74.3033472,41.8503552 74.1066624,42.5971584 Z M74.1965184,33.6115584 C74.168835,30.5447028 73.632396,27.5037008 72.6090624,24.61248 C73.666368,23.0205312 74.6937216,20.38176 75.2073984,18.9710208 C74.7581184,18.2222208 74.2818816,17.506368 73.7771904,16.8234624 C73.3179871,18.8468573 72.6897858,20.8281459 71.8992,22.7464704 C71.3665353,21.4710081 70.7527616,20.2309552 70.0616448,19.03392 C70.618752,17.68608 71.0260992,15.2809344 71.2357632,13.8282624 C70.7595264,13.3290624 70.271808,12.8468352 69.772608,12.3815808 C69.7023988,14.1141483 69.4910361,15.8381066 69.1406208,17.53632 C68.5486344,16.6268206 67.911352,15.7476208 67.2311808,14.9020416 C67.4321303,13.4589509 67.5361968,12.004021 67.5426816,10.5470208 L66.6710784,9.681408 C66.39552,9.44928 66.118464,9.22464 65.841408,9 C65.94624,9.651456 66.3041664,12.0371328 66.2217984,13.7054592 C65.196718,12.5481938 64.0858448,11.4698609 62.898624,10.4796288 C62.898624,10.4796288 62.8132608,11.7001728 63.669888,12.5762688 C64.216512,13.1288832 64.740672,13.702464 65.2453632,14.2910208 C64.0465663,14.1500391 62.8401817,14.0835179 61.633152,14.09184 C62.0727356,14.4680318 62.4851091,14.8749004 62.8671744,15.3093888 C63.9760036,15.2930971 65.0848923,15.3375927 66.1888512,15.4426752 C66.8433024,16.2798336 67.4528256,17.1484416 68.0189184,18.0395136 C67.3959168,17.9197056 65.75904,17.6126976 64.4576256,17.4494592 C64.7571456,17.9217024 65.042688,18.4209024 65.3142528,18.9470592 C66.2652288,19.0578816 67.885632,19.2690432 68.9084928,19.5251328 C69.5126032,20.5963903 70.053658,21.7020024 70.528896,22.8363264 C69.76512,22.5697536 67.9410432,21.9377664 66.485376,21.5394048 C66.7130112,22.1249664 66.9256704,22.7270016 67.1188608,23.3455104 C68.3693568,23.6749824 70.281792,24.2021376 71.1938304,24.582528 C71.5818266,25.6924746 71.9028897,26.8246969 72.1552896,27.9730944 C71.547264,27.6735744 69.4850688,26.6806656 67.8272256,26.0262144 C67.9640064,26.649216 68.0818176,27.2832 68.1806592,27.9281664 C69.368256,28.4403456 71.4753792,29.3883264 72.53568,30.1131648 C72.6949554,31.2715094 72.7755113,32.4393202 72.7767936,33.6085632 C72.7767936,33.7074048 72.7767936,33.8032512 72.7767936,33.9005952 C71.4959084,32.6428394 70.0541787,31.5601573 68.4891648,30.6807552 C68.5340928,31.3536768 68.5575552,32.030592 68.559552,32.7115008 C69.2604288,33.1383168 71.2162944,34.4007936 72.6689664,36.016704 C72.5488317,37.309156 72.3315649,38.5907296 72.019008,39.85056 C70.922181,38.3931668 69.7064621,37.0291773 68.3843328,35.7725952 C68.2944768,36.5693184 68.1686784,37.349568 68.0144256,38.113344 C68.963904,39.0538368 70.5393792,40.704192 71.3585664,42.0774912 C70.9638988,43.2160962 70.4941181,44.32726 69.95232,45.4036608 C69.6932352,44.8720128 68.4876672,42.456384 67.3000704,40.8794112 C67.0357685,41.7186777 66.7288616,42.5439274 66.380544,43.3519488 C66.9601152,44.328384 68.1267456,46.3471488 68.6673792,47.6949888 C67.9834668,48.7843477 67.2332527,49.8306463 66.4209792,50.827968 C66.2712192,50.3097984 65.5314048,47.832768 64.9233792,46.200384 C64.4558879,46.9782462 63.9344434,47.7223805 63.36288,48.4273152 C63.707328,49.5385344 64.351296,51.6771072 64.5879168,52.9081344 C63.7926912,53.7363072 62.9570304,54.5225472 62.0929152,55.268352 C61.7933952,53.6988672 61.3231488,51.524352 61.1254656,50.640768 C60.4943374,51.1362176 59.7920391,51.5335639 59.042304,51.8193792 L59.4481536,57.3455232 C58.7607552,57.8427264 58.0643712,58.323456 57.3515136,58.7697408 C56.6431488,58.3204608 55.9482624,57.8427264 55.2548736,57.3455232 L55.6622208,51.8044032 C54.9137521,51.5155721 54.2122383,51.1173747 53.5805568,50.6227968 C53.3858688,51.501888 52.9051392,53.688384 52.610112,55.2653568 C51.7459968,54.5165568 50.910336,53.733312 50.1151104,52.9051392 C50.3517312,51.6726144 50.9971968,49.5295488 51.3416448,48.4123392 C50.7688896,47.7112984 50.2464219,46.9706354 49.7781504,46.1958912 C49.1626368,47.8297728 48.4303104,50.2993152 48.2805504,50.8174848 C47.4673083,49.8209039 46.7170503,48.774544 46.0341504,47.6845056 C46.5717888,46.3471488 47.727936,44.3418624 48.3105024,43.3594368 C47.9637004,42.5552293 47.6577992,41.7339944 47.3939712,40.89888 C46.2108672,42.4758528 45.0157824,44.8735104 44.7581952,45.4021632 C44.2156495,44.32508 43.7458494,43.2128696 43.3519488,42.0729984 C44.1651456,40.7101824 45.7241472,39.0777984 46.6766208,38.12832 C46.5268608,37.364544 46.3935744,36.5842944 46.3037184,35.7875712 C44.9916977,37.0406136 43.7850505,38.3995318 42.696,39.85056 C42.3842356,38.5907627 42.1684616,37.3091356 42.0505344,36.016704 C43.4942208,34.4112768 45.4306176,33.156288 46.1434752,32.721984 C46.1434752,32.0390784 46.1684352,31.3606656 46.2183552,30.6867456 C44.6574505,31.5644873 43.219724,32.6451742 41.9427072,33.9005952 C41.9427072,33.8032512 41.9427072,33.7074048 41.9427072,33.6085632 C41.9406504,32.4405571 42.0177035,31.2737526 42.1733376,30.11616 C43.235136,29.3913216 45.3362688,28.4448384 46.5253632,27.9326592 C46.6252032,27.2866944 46.7455104,26.6512128 46.8862848,26.0262144 C45.2284416,26.6746752 43.1632512,27.6735744 42.553728,27.9730944 C42.8051369,26.8219923 43.1262142,25.6872191 43.5151872,24.57504 C44.4302208,24.193152 46.3606272,23.6630016 47.6066304,23.3335296 C47.802816,22.7135232 48.0184704,22.1099904 48.2476032,21.5244288 C46.7949312,21.9287808 44.9528832,22.560768 44.1846144,22.8288384 C44.6609907,21.6947759 45.2025277,20.5892004 45.8065152,19.5176448 C46.836864,19.25856 48.484224,19.0459008 49.4307072,18.936576 C49.7062656,18.4144128 49.994304,17.9152128 50.2948224,17.438976 C48.98592,17.6007168 47.3205888,17.9137152 46.6915968,18.038016 C47.2576896,17.139456 47.8672128,16.278336 48.5201664,15.4411776 C49.6394798,15.3337108 50.7639804,15.2897107 51.8882688,15.3093888 C52.2722817,14.8752228 52.6861254,14.4683849 53.126784,14.09184 C51.903383,14.0807084 50.680475,14.1457301 49.465152,14.286528 C49.9683456,13.6979712 50.4940032,13.1243904 51.0406272,12.571776 C51.8972544,11.7016704 51.8118912,10.475136 51.8118912,10.475136 C50.6246704,11.4653681 49.5137972,12.543701 48.4887168,13.7009664 L48.4887168,13.6889856 C48.4452864,13.7384064 48.4063488,13.79232 48.364416,13.8387456 C43.3534464,19.5475968 40.5124992,26.9157888 40.5124992,33.59808 C40.5124992,38.4862464 41.550336,42.793344 43.3579392,46.5792768 C42.9625728,46.5028992 41.4814464,46.1839104 39.3458688,45.2988288 C38.3649408,44.8914816 37.6820352,44.5844736 37.2192768,44.3643264 C37.5322752,45.5099904 37.8916992,46.6212096 38.2885632,47.6919936 C39.2170752,48.0319488 41.3361792,48.6774144 44.6413824,48.9694464 C45.2616778,50.0033287 45.9427856,50.9994863 46.6811136,51.9526656 C44.3181145,51.8824846 41.9696645,51.5566039 39.6768384,50.9807232 C40.2063469,52.0891012 40.7973209,53.1670537 41.4470016,54.2095488 C43.3414656,54.4252032 45.8080128,54.3952512 48.53664,54.1466496 C49.4707755,55.1567647 50.4612711,56.1132605 51.5033856,57.0115584 C49.8535875,57.2123068 48.1933162,57.3148235 46.5313536,57.3185664 C45.1954944,57.305088 44.2490112,57.2571648 43.6349952,57.2122368 C44.702784,58.4522496 45.796032,59.4077184 46.8563328,60.0172416 C48.289536,59.8255488 51.1394688,59.3807616 53.5146624,58.6394496 C54.0657792,59.0577792 54.6278784,59.4636288 55.20096,59.8569984 L55.380672,59.978304 L45.5908608,66.0136354 L48.9379968,66.0136354 C49.8233226,66.0147192 50.6892366,65.7542156 51.427008,65.264832 L59.514048,59.873472 C68.0234112,54.0148608 74.1965184,45.54144 74.1965184,33.605568 L74.1965184,33.6115584 Z M76.392,32.6111616 C75.8798208,33.1907328 75.4275456,33.6594816 75.0576384,34.0069248 C75.0576384,34.264512 75.0756096,34.5235968 75.0756096,34.7781888 C75.0756096,35.2738944 75.0606336,35.7606144 75.0396672,36.2428416 C76.586688,35.1271296 78.2145792,33.5067264 78.878016,32.8253184 C78.8525568,31.72608 78.7866624,30.6747648 78.6743424,29.6803584 C77.9905467,30.71488 77.2274736,31.6947581 76.392,32.6111616 L76.392,32.6111616 Z" id="Shape" fill="url(#linearGradient-1)" fill-rule="nonzero"></path>
                    <path d="M40.2144768,27.42048 C39.2826424,25.8425435 38.4648632,24.1999783 37.7673984,22.5053568 C37.4177962,23.3910207 37.1178113,24.2954751 36.8688384,25.2145152 C37.4873472,26.3002752 38.6015616,28.1378304 39.8221056,29.6159616 C39.9239424,28.8861312 40.0547328,28.154304 40.2144768,27.42048 Z M45.2853504,15.9653376 C45.1095644,14.7769323 44.995096,13.5802628 44.9424,12.3800832 C44.4432,12.8503296 43.9554816,13.333056 43.4792448,13.8282624 C43.6525999,15.104572 43.8910289,16.3711948 44.1936,17.6231808 C44.5400448,17.0660736 44.9039616,16.5134592 45.2853504,15.9653376 L45.2853504,15.9653376 Z M74.602368,29.951424 C75.9337344,28.4253696 77.1737472,26.3826432 77.8416768,25.2145152 C77.5927012,24.2959664 77.2927159,23.3920105 76.9431168,22.5068544 C75.7540224,25.3103616 74.7700992,27.0221184 74.153088,27.9656064 C74.3283072,28.6275456 74.4765696,29.2894848 74.602368,29.951424 Z M60.2418816,38.1103488 L57.8322432,38.1103488 L57.8322432,35.889408 L60.2418816,35.889408 L60.2418816,34.7377536 L57.8322432,34.7377536 L57.8322432,32.51232 L60.2418816,32.51232 L60.2418816,31.3606656 L57.8322432,31.3606656 L57.8322432,29.1442176 L60.2418816,29.1442176 L60.2418816,27.9910656 L57.8322432,27.9910656 L57.8322432,25.77312 L60.2418816,25.77312 L60.2418816,24.619968 L54.4686336,24.619968 L54.4686336,25.77312 L56.878272,25.77312 L56.878272,27.9925632 L54.4686336,27.9925632 L54.4686336,29.1457152 L56.878272,29.1457152 L56.878272,31.366656 L54.4686336,31.366656 L54.4686336,32.51232 L56.878272,32.51232 L56.878272,34.7332608 L54.4686336,34.7332608 L54.4686336,35.8849152 L56.878272,35.8849152 L56.878272,38.105856 L54.4686336,38.105856 L54.4686336,39.2575104 L60.2418816,39.2575104 L60.2418816,38.1103488 Z M42.24672,21.3012864 C41.7084016,19.8388678 41.2691115,18.3418791 40.9318272,16.8204672 C40.4185986,17.512693 39.9407515,18.2304632 39.5001216,18.9710208 C40.0373178,20.4847966 40.6690507,21.9633417 41.3915904,23.3979264 C41.64768,22.6940544 41.9382144,21.9931776 42.24672,21.3012864 Z M48.5126784,12.0536064 C48.596544,10.7491968 48.791232,9.456768 48.866112,9 C48.5875584,9.22464 47.1648384,10.542528 47.1648384,10.542528 C47.1648384,11.6222976 47.2307328,12.5987328 47.30112,13.3744896 C47.6924928,12.9242112 48.097344,12.4839168 48.5156736,12.0536064 L48.5126784,12.0536064 Z M39.7412352,36.2952576 C39.66336,35.5269888 39.610944,34.7452416 39.5914752,33.9455232 C39.2335488,33.59808 38.8037376,33.1577856 38.3200128,32.6111616 C37.4848092,31.6924068 36.7217624,30.7105598 36.0376704,29.674368 C35.926848,30.6747648 35.8609536,31.72608 35.8339968,32.819328 C36.503424,33.5172096 38.173248,35.178048 39.7412352,36.2952576 Z M60.6911616,60.824448 L60.3916416,61.0386048 L58.6783872,62.1827712 L63.288,65.2588416 C64.0257714,65.7482252 64.8916854,66.0087288 65.7770112,66.007645 L69.1241472,66.007645 L60.6911616,60.824448 Z M65.174976,57.2107392 C64.4621184,57.8756736 63.7228032,58.5151488 62.9570304,59.1291648 C64.8559872,59.5874304 66.7639296,59.8779648 67.8526848,60.0277248 C68.9129856,59.416704 70.0062336,58.4627328 71.0725248,57.22272 C70.4600064,57.267648 69.5120256,57.3155712 68.177664,57.3290496 C67.1323392,57.33504 66.0690432,57.2796288 65.174976,57.2107392 Z M77.4897408,44.3718144 C77.0254848,44.5919616 76.3440768,44.8989696 75.3616512,45.3063168 C74.4046848,45.7031808 73.5795072,45.9847296 72.9235584,46.1839104 C72.5629145,47.0736647 72.1570348,47.9444067 71.7075072,48.7927296 C74.0812032,48.4662528 75.6536832,47.9795328 76.4204544,47.7009792 C76.8158208,46.6286976 77.1752448,45.5174784 77.4897408,44.3718144 L77.4897408,44.3718144 Z M75.0321792,50.9882112 C73.3276663,51.4125388 71.592691,51.7034538 69.8429952,51.8583168 C69.2589312,52.6989696 68.634432,53.5091712 67.9694976,54.2889216 C69.7326907,54.4098949 71.5028547,54.385351 73.262016,54.2155392 C73.9110757,53.1731957 74.5020312,52.0957768 75.0321792,50.9882112 Z M40.4675712,40.5184896 C39.4551936,39.9284352 37.9216512,38.9010816 35.9463168,37.1683584 C36.0361728,38.2915584 36.1754496,39.4042752 36.361152,40.4975232 C37.8660015,41.4209142 39.4612377,42.1881732 41.1220224,42.7873536 C40.8734208,42.0505344 40.6552704,41.2942464 40.4675712,40.5184896 Z M74.1066624,42.5971584 C75.5809032,42.0269105 77.0008588,41.3252029 78.3493632,40.5005184 C78.5350656,39.4022784 78.673344,38.2915584 78.7641984,37.1683584 C77.466845,38.3253268 76.075802,39.3727416 74.6053632,40.29984 C74.4695808,41.0845824 74.3033472,41.8503552 74.1066624,42.5971584 Z M74.1965184,33.6115584 C74.168835,30.5447028 73.632396,27.5037008 72.6090624,24.61248 C73.666368,23.0205312 74.6937216,20.38176 75.2073984,18.9710208 C74.7581184,18.2222208 74.2818816,17.506368 73.7771904,16.8234624 C73.3179871,18.8468573 72.6897858,20.8281459 71.8992,22.7464704 C71.3665353,21.4710081 70.7527616,20.2309552 70.0616448,19.03392 C70.618752,17.68608 71.0260992,15.2809344 71.2357632,13.8282624 C70.7595264,13.3290624 70.271808,12.8468352 69.772608,12.3815808 C69.7023988,14.1141483 69.4910361,15.8381066 69.1406208,17.53632 C68.5486344,16.6268206 67.911352,15.7476208 67.2311808,14.9020416 C67.4321303,13.4589509 67.5361968,12.004021 67.5426816,10.5470208 L66.6710784,9.681408 C66.39552,9.44928 66.118464,9.22464 65.841408,9 C65.94624,9.651456 66.3041664,12.0371328 66.2217984,13.7054592 C65.196718,12.5481938 64.0858448,11.4698609 62.898624,10.4796288 C62.898624,10.4796288 62.8132608,11.7001728 63.669888,12.5762688 C64.216512,13.1288832 64.740672,13.702464 65.2453632,14.2910208 C64.0465663,14.1500391 62.8401817,14.0835179 61.633152,14.09184 C62.0727356,14.4680318 62.4851091,14.8749004 62.8671744,15.3093888 C63.9760036,15.2930971 65.0848923,15.3375927 66.1888512,15.4426752 C66.8433024,16.2798336 67.4528256,17.1484416 68.0189184,18.0395136 C67.3959168,17.9197056 65.75904,17.6126976 64.4576256,17.4494592 C64.7571456,17.9217024 65.042688,18.4209024 65.3142528,18.9470592 C66.2652288,19.0578816 67.885632,19.2690432 68.9084928,19.5251328 C69.5126032,20.5963903 70.053658,21.7020024 70.528896,22.8363264 C69.76512,22.5697536 67.9410432,21.9377664 66.485376,21.5394048 C66.7130112,22.1249664 66.9256704,22.7270016 67.1188608,23.3455104 C68.3693568,23.6749824 70.281792,24.2021376 71.1938304,24.582528 C71.5818266,25.6924746 71.9028897,26.8246969 72.1552896,27.9730944 C71.547264,27.6735744 69.4850688,26.6806656 67.8272256,26.0262144 C67.9640064,26.649216 68.0818176,27.2832 68.1806592,27.9281664 C69.368256,28.4403456 71.4753792,29.3883264 72.53568,30.1131648 C72.6949554,31.2715094 72.7755113,32.4393202 72.7767936,33.6085632 C72.7767936,33.7074048 72.7767936,33.8032512 72.7767936,33.9005952 C71.4959084,32.6428394 70.0541787,31.5601573 68.4891648,30.6807552 C68.5340928,31.3536768 68.5575552,32.030592 68.559552,32.7115008 C69.2604288,33.1383168 71.2162944,34.4007936 72.6689664,36.016704 C72.5488317,37.309156 72.3315649,38.5907296 72.019008,39.85056 C70.922181,38.3931668 69.7064621,37.0291773 68.3843328,35.7725952 C68.2944768,36.5693184 68.1686784,37.349568 68.0144256,38.113344 C68.963904,39.0538368 70.5393792,40.704192 71.3585664,42.0774912 C70.9638988,43.2160962 70.4941181,44.32726 69.95232,45.4036608 C69.6932352,44.8720128 68.4876672,42.456384 67.3000704,40.8794112 C67.0357685,41.7186777 66.7288616,42.5439274 66.380544,43.3519488 C66.9601152,44.328384 68.1267456,46.3471488 68.6673792,47.6949888 C67.9834668,48.7843477 67.2332527,49.8306463 66.4209792,50.827968 C66.2712192,50.3097984 65.5314048,47.832768 64.9233792,46.200384 C64.4558879,46.9782462 63.9344434,47.7223805 63.36288,48.4273152 C63.707328,49.5385344 64.351296,51.6771072 64.5879168,52.9081344 C63.7926912,53.7363072 62.9570304,54.5225472 62.0929152,55.268352 C61.7933952,53.6988672 61.3231488,51.524352 61.1254656,50.640768 C60.4943374,51.1362176 59.7920391,51.5335639 59.042304,51.8193792 L59.4481536,57.3455232 C58.7607552,57.8427264 58.0643712,58.323456 57.3515136,58.7697408 C56.6431488,58.3204608 55.9482624,57.8427264 55.2548736,57.3455232 L55.6622208,51.8044032 C54.9137521,51.5155721 54.2122383,51.1173747 53.5805568,50.6227968 C53.3858688,51.501888 52.9051392,53.688384 52.610112,55.2653568 C51.7459968,54.5165568 50.910336,53.733312 50.1151104,52.9051392 C50.3517312,51.6726144 50.9971968,49.5295488 51.3416448,48.4123392 C50.7688896,47.7112984 50.2464219,46.9706354 49.7781504,46.1958912 C49.1626368,47.8297728 48.4303104,50.2993152 48.2805504,50.8174848 C47.4673083,49.8209039 46.7170503,48.774544 46.0341504,47.6845056 C46.5717888,46.3471488 47.727936,44.3418624 48.3105024,43.3594368 C47.9637004,42.5552293 47.6577992,41.7339944 47.3939712,40.89888 C46.2108672,42.4758528 45.0157824,44.8735104 44.7581952,45.4021632 C44.2156495,44.32508 43.7458494,43.2128696 43.3519488,42.0729984 C44.1651456,40.7101824 45.7241472,39.0777984 46.6766208,38.12832 C46.5268608,37.364544 46.3935744,36.5842944 46.3037184,35.7875712 C44.9916977,37.0406136 43.7850505,38.3995318 42.696,39.85056 C42.3842356,38.5907627 42.1684616,37.3091356 42.0505344,36.016704 C43.4942208,34.4112768 45.4306176,33.156288 46.1434752,32.721984 C46.1434752,32.0390784 46.1684352,31.3606656 46.2183552,30.6867456 C44.6574505,31.5644873 43.219724,32.6451742 41.9427072,33.9005952 C41.9427072,33.8032512 41.9427072,33.7074048 41.9427072,33.6085632 C41.9406504,32.4405571 42.0177035,31.2737526 42.1733376,30.11616 C43.235136,29.3913216 45.3362688,28.4448384 46.5253632,27.9326592 C46.6252032,27.2866944 46.7455104,26.6512128 46.8862848,26.0262144 C45.2284416,26.6746752 43.1632512,27.6735744 42.553728,27.9730944 C42.8051369,26.8219923 43.1262142,25.6872191 43.5151872,24.57504 C44.4302208,24.193152 46.3606272,23.6630016 47.6066304,23.3335296 C47.802816,22.7135232 48.0184704,22.1099904 48.2476032,21.5244288 C46.7949312,21.9287808 44.9528832,22.560768 44.1846144,22.8288384 C44.6609907,21.6947759 45.2025277,20.5892004 45.8065152,19.5176448 C46.836864,19.25856 48.484224,19.0459008 49.4307072,18.936576 C49.7062656,18.4144128 49.994304,17.9152128 50.2948224,17.438976 C48.98592,17.6007168 47.3205888,17.9137152 46.6915968,18.038016 C47.2576896,17.139456 47.8672128,16.278336 48.5201664,15.4411776 C49.6394798,15.3337108 50.7639804,15.2897107 51.8882688,15.3093888 C52.2722817,14.8752228 52.6861254,14.4683849 53.126784,14.09184 C51.903383,14.0807084 50.680475,14.1457301 49.465152,14.286528 C49.9683456,13.6979712 50.4940032,13.1243904 51.0406272,12.571776 C51.8972544,11.7016704 51.8118912,10.475136 51.8118912,10.475136 C50.6246704,11.4653681 49.5137972,12.543701 48.4887168,13.7009664 L48.4887168,13.6889856 C48.4452864,13.7384064 48.4063488,13.79232 48.364416,13.8387456 C43.3534464,19.5475968 40.5124992,26.9157888 40.5124992,33.59808 C40.5124992,38.4862464 41.550336,42.793344 43.3579392,46.5792768 C42.9625728,46.5028992 41.4814464,46.1839104 39.3458688,45.2988288 C38.3649408,44.8914816 37.6820352,44.5844736 37.2192768,44.3643264 C37.5322752,45.5099904 37.8916992,46.6212096 38.2885632,47.6919936 C39.2170752,48.0319488 41.3361792,48.6774144 44.6413824,48.9694464 C45.2616778,50.0033287 45.9427856,50.9994863 46.6811136,51.9526656 C44.3181145,51.8824846 41.9696645,51.5566039 39.6768384,50.9807232 C40.2063469,52.0891012 40.7973209,53.1670537 41.4470016,54.2095488 C43.3414656,54.4252032 45.8080128,54.3952512 48.53664,54.1466496 C49.4707755,55.1567647 50.4612711,56.1132605 51.5033856,57.0115584 C49.8535875,57.2123068 48.1933162,57.3148235 46.5313536,57.3185664 C45.1954944,57.305088 44.2490112,57.2571648 43.6349952,57.2122368 C44.702784,58.4522496 45.796032,59.4077184 46.8563328,60.0172416 C48.289536,59.8255488 51.1394688,59.3807616 53.5146624,58.6394496 C54.0657792,59.0577792 54.6278784,59.4636288 55.20096,59.8569984 L55.380672,59.978304 L45.5908608,66.0136354 L48.9379968,66.0136354 C49.8233226,66.0147192 50.6892366,65.7542156 51.427008,65.264832 L59.514048,59.873472 C68.0234112,54.0148608 74.1965184,45.54144 74.1965184,33.605568 L74.1965184,33.6115584 Z M76.392,32.6111616 C75.8798208,33.1907328 75.4275456,33.6594816 75.0576384,34.0069248 C75.0576384,34.264512 75.0756096,34.5235968 75.0756096,34.7781888 C75.0756096,35.2738944 75.0606336,35.7606144 75.0396672,36.2428416 C76.586688,35.1271296 78.2145792,33.5067264 78.878016,32.8253184 C78.8525568,31.72608 78.7866624,30.6747648 78.6743424,29.6803584 C77.9905467,30.71488 77.2274736,31.6947581 76.392,32.6111616 L76.392,32.6111616 Z" id="Shape" fill="url(#linearGradient-2)" fill-rule="nonzero"></path>
                    <path d="M57.52224,29.2954752 L57.82176,29.2954752 L57.82176,31.3651584 L60.2313984,31.3651584 L60.2313984,32.51232 L59.9318784,32.51232 L59.9318784,31.5119232 L57.52224,31.5119232 L57.52224,29.2954752 Z M40.719168,42.643584 C40.8509568,42.6915072 40.9827456,42.740928 41.116032,42.793344 C40.8684288,42.0565248 40.6502784,41.3002368 40.4615808,40.52448 C39.4492032,39.9344256 37.9156608,38.907072 35.9403264,37.1743488 C35.9523072,37.3241088 35.9732736,37.4738688 35.986752,37.6236288 C37.7973504,39.1721472 39.206592,40.120128 40.157568,40.67424 C40.3282944,41.34816 40.5184896,41.9981184 40.7251584,42.643584 L40.719168,42.643584 Z M64.9413504,14.4377856 L64.755648,14.2281216 C63.7402752,14.1232896 62.5976064,14.09184 61.633152,14.0903424 C61.6915584,14.1397632 61.7469696,14.196672 61.8023808,14.2401024 C62.8516632,14.2447429 63.8997761,14.31075 64.9413504,14.4377856 L64.9413504,14.4377856 Z M57.52224,25.92288 L57.52224,28.1438208 L59.9318784,28.1438208 L59.9318784,29.1442176 L60.2313984,29.1442176 L60.2313984,27.9910656 L57.8322432,27.9910656 L57.8322432,25.92288 L57.52224,25.92288 Z M60.2358912,39.2620032 L60.2358912,38.1103488 L57.8322432,38.1103488 L57.8322432,36.0421632 L57.5327232,36.0421632 L57.5327232,38.2616064 L59.9423616,38.2616064 L59.9423616,39.2620032 L60.2358912,39.2620032 Z M65.9117952,13.8582144 C65.9192832,13.7084544 65.9207808,13.5482112 65.9222784,13.387968 C64.982189,12.3504187 63.9719254,11.3786842 62.898624,10.4796288 C62.8925918,10.623648 62.8986031,10.7679194 62.9165952,10.9109376 C63.9825855,11.8242605 64.9852913,12.8089536 65.9177856,13.8582144 L65.9117952,13.8582144 Z M71.8048512,39.5750016 C70.7638764,38.2189442 69.6181972,36.9465793 68.3783424,35.7696 C68.3633664,35.9013888 68.3424,36.0301824 68.3259264,36.1604736 C69.551941,37.3520696 70.6849406,38.6357686 71.7149952,40.00032 C71.74944,39.8595456 71.7778944,39.715776 71.8108416,39.5750016 L71.8048512,39.5750016 Z M68.5011456,31.01472 C69.9430213,31.8606544 71.2754007,32.8806866 72.468288,34.0518528 C72.468288,33.9545088 72.468288,33.8571648 72.468288,33.7523328 C72.468288,33.7014144 72.468288,33.650496 72.468288,33.6025728 C71.2628379,32.4684286 69.9241774,31.4847998 68.4816768,30.6732672 C68.49216,30.7885824 68.4951552,30.9009024 68.5011456,31.01472 Z M66.365568,9.8281728 L67.2386688,10.6937856 C67.2326421,12.151353 67.1280708,13.6068452 66.9256704,15.050304 C67.6072,15.8957192 68.2450134,16.7754619 68.836608,17.68608 C68.8605696,17.5797504 68.8935168,17.4254976 68.9309568,17.2278144 C68.3993088,16.4310912 67.8362112,15.6508416 67.2311808,14.8990464 C67.4321303,13.4559557 67.5361968,12.0010258 67.5426816,10.5440256 L66.6710784,9.6784128 C66.39552,9.44928 66.118464,9.22464 65.841408,9 C65.8593792,9.1078272 65.8833408,9.2665728 65.9117952,9.456768 C66.05856,9.5810688 66.215808,9.703872 66.365568,9.8281728 Z M70.9317504,13.97952 C70.7220864,15.43968 70.3147392,17.83584 69.757632,19.18368 C70.4497687,20.3819063 71.0650257,21.6229246 71.59968,22.8992256 C71.6476032,22.7839104 71.7075072,22.6326528 71.7778944,22.4499456 C71.2728129,21.2788245 70.6997537,20.1382067 70.0616448,19.03392 C70.618752,17.68608 71.0260992,15.2809344 71.2357632,13.8282624 C70.7595264,13.3290624 70.271808,12.8468352 69.772608,12.3815808 C69.772608,12.5313408 69.757632,12.6706176 69.750144,12.811392 C70.1500032,13.19328 70.55136,13.5796608 70.9317504,13.97952 Z M56.5727616,34.9264512 L56.5727616,34.7392512 L54.4686336,34.7392512 L54.4686336,34.9264512 L56.5727616,34.9264512 Z M55.3671936,51.9616512 L54.9598464,57.5027712 C55.6472448,57.9999744 56.3421312,58.4792064 57.0564864,58.9269888 C57.1463424,58.87008 57.2347008,58.8086784 57.3245568,58.750272 C56.6281728,58.3099776 55.9452672,57.8382336 55.2698496,57.350016 L55.6771968,51.808896 C54.9287281,51.5200649 54.2272143,51.1218675 53.5955328,50.6272896 C53.576064,50.7201408 53.5521024,50.8294656 53.5251456,50.9462784 C54.0916814,51.3637261 54.7111028,51.7041561 55.3671936,51.958656 L55.3671936,51.9616512 Z M59.9378688,24.7742208 L59.9378688,25.77312 L60.2373888,25.77312 L60.2373888,24.619968 L54.4686336,24.619968 L54.4686336,24.769728 L59.9378688,24.7742208 Z M59.0393088,51.8223744 L59.0393088,51.8478336 C59.1950592,51.7799424 59.3508096,51.70656 59.50656,51.6276864 C59.3538048,51.696576 59.1965568,51.7624704 59.0408064,51.8193792 L59.0393088,51.8223744 Z M43.055424,46.73952 L42.9446016,46.4969088 C41.7164201,46.1974636 40.5144319,45.799305 39.3503616,45.3063168 C38.3694336,44.8989696 37.686528,44.5919616 37.2237696,44.3718144 C37.2552192,44.4871296 37.2926592,44.597952 37.3256064,44.7117696 C37.7569152,44.9094528 38.3200128,45.1610496 39.0463488,45.4605696 C41.1789312,46.342656 42.6600576,46.6631424 43.055424,46.73952 Z M56.5727616,28.1812608 L56.5727616,27.9940608 L54.4686336,27.9940608 L54.4686336,28.1812608 L56.5727616,28.1812608 Z M56.5727616,38.2990464 L56.5727616,38.1118464 L54.4686336,38.1118464 L54.4686336,38.2990464 L56.5727616,38.2990464 Z M56.5727616,31.5598464 L56.5727616,31.3726464 L54.4686336,31.3726464 L54.4686336,31.5598464 L56.5727616,31.5598464 Z M57.52224,34.8890112 L59.9318784,34.8890112 L59.9318784,35.889408 L60.2313984,35.889408 L60.2313984,34.7377536 L57.8322432,34.7377536 L57.8322432,32.669568 L57.5327232,32.669568 L57.52224,34.8890112 Z M69.8295168,45.16704 C69.4266624,44.3598336 68.3543808,42.2871552 67.29408,40.8794112 C67.2536448,41.0112 67.2057216,41.1355008 67.1622912,41.265792 C68.30496,42.84576 69.4012032,45.0502272 69.6528,45.5549184 C69.712704,45.4276224 69.772608,45.2958336 69.8355072,45.16704 L69.8295168,45.16704 Z M61.7874048,55.4256 C61.8832512,55.3417344 61.9746048,55.253376 62.0704512,55.1680128 C61.7709312,53.6090112 61.3216512,51.5138688 61.123968,50.6452608 C61.026624,50.7186432 60.92928,50.7845376 60.831936,50.8534272 C61.0356096,51.7684608 61.4998656,53.8815744 61.7874048,55.4256 Z M67.8886272,26.3242368 C69.4715904,26.9682048 71.2881792,27.8443008 71.8527744,28.1213568 C71.8273152,28.0090368 71.7988608,27.8967168 71.7734016,27.7843968 C70.9152768,27.3710592 69.2274816,26.5773312 67.8287232,26.0292096 C67.85568,26.1205632 67.8691584,26.2224 67.8886272,26.319744 L67.8886272,26.3242368 Z M69.7471488,51.9945984 C71.4265022,51.8366049 73.091558,51.5522538 74.7281664,51.1439616 C74.219878,52.2055544 73.655484,53.2393603 73.037376,54.2409984 L73.262016,54.220032 C73.9110757,53.1776885 74.5020312,52.1002696 75.0321792,50.992704 C73.3276663,51.4170316 71.592691,51.7079466 69.8429952,51.8628096 C69.8115456,51.9032448 69.7771008,51.9451776 69.7471488,51.9901056 L69.7471488,51.9945984 Z M72.9235584,46.1884032 C72.9145728,46.2108672 72.9040896,46.2318336 72.895104,46.2542976 C73.5031296,46.0611072 74.2264704,45.8050176 75.0576384,45.4620672 C76.0385664,45.0562176 76.721472,44.747712 77.185728,44.5275648 C76.8772224,45.6552576 76.5222912,46.7500032 76.137408,47.8058112 L76.4234496,47.705472 C76.818816,46.6331904 77.1722496,45.5219712 77.492736,44.3763072 C77.02848,44.5964544 76.347072,44.9034624 75.3646464,45.3108096 C74.4046848,45.7031808 73.5795072,45.99072 72.9235584,46.1839104 L72.9235584,46.1884032 Z M64.583424,17.6576256 C65.79648,17.8268544 67.159296,18.082944 67.7149056,18.1892736 C67.6624896,18.1084032 67.6055808,18.030528 67.5546624,17.9496576 C66.7759104,17.7998976 65.5074432,17.5797504 64.4576256,17.4479616 C64.4995584,17.5153536 64.5414912,17.588736 64.583424,17.6576256 Z M66.5857152,21.7984896 C67.9545216,22.1983488 69.525504,22.7359872 70.2203904,22.9785984 C70.1784576,22.8767616 70.132032,22.7764224 70.0886016,22.6790784 C69.1900416,22.3705728 67.7089152,21.8748672 66.4868736,21.5334144 C66.5213184,21.6187776 66.552768,21.7086336 66.5857152,21.7984896 L66.5857152,21.7984896 Z M77.537664,25.3657728 C76.91616,26.4560256 75.7944576,28.2980736 74.5679232,29.7806976 C74.5784064,29.8376064 74.5918848,29.8945152 74.602368,29.951424 C75.9337344,28.4253696 77.1737472,26.3826432 77.8416768,25.2145152 C77.5927012,24.2959664 77.2927159,23.3920105 76.9431168,22.5068544 L76.7484288,22.9561344 C77.0404608,23.7273984 77.3085312,24.5241216 77.537664,25.3657728 Z M64.995264,57.37248 C65.8653696,57.4368768 66.874752,57.4862976 67.8736512,57.477312 C69.2080128,57.4653312 70.154496,57.417408 70.768512,57.37248 C69.787584,58.5121536 68.7856896,59.4062208 67.8062592,60.0187392 L67.8526848,60.0187392 C68.9129856,59.4077184 70.0062336,58.4537472 71.0725248,57.2137344 C70.4600064,57.2586624 69.5120256,57.3065856 68.177664,57.320064 C67.129344,57.3290496 66.0690432,57.2736384 65.182464,57.2047488 C65.1165696,57.2661504 65.055168,57.3170688 64.995264,57.37248 Z M66.3745536,50.655744 C66.1514112,49.906944 65.4864768,47.697984 64.9218816,46.1988864 C64.8470016,46.3231872 64.7721216,46.4414976 64.6942464,46.5613056 C65.2932864,48.1891968 65.9746944,50.4820224 66.1214592,50.977728 C66.20832,50.8713984 66.2891904,50.7635712 66.3745536,50.655744 L66.3745536,50.655744 Z M60.4335744,61.0056576 L68.5685376,66.013632 L69.1196544,66.013632 L60.6911616,60.824448 L60.4335744,61.0056576 Z M47.6066304,23.332032 C47.802816,22.7120256 48.0184704,22.1084928 48.2476032,21.5229312 C46.7949312,21.9272832 44.9528832,22.5592704 44.1846144,22.8273408 C44.6473274,21.7263526 45.1718225,20.6523625 45.7555968,19.610496 C45.6702336,19.6284672 45.5803776,19.647936 45.5025024,19.6674048 C44.8985149,20.7389604 44.3569779,21.8445359 43.8806016,22.9785984 C44.6488704,22.710528 46.4909184,22.0800384 47.9435904,21.6756864 C47.7234432,22.2357888 47.518272,22.8138624 47.3280768,23.4054144 L47.6066304,23.332032 Z M74.1965184,33.605568 C74.168835,30.5387124 73.632396,27.4977104 72.6090624,24.6064896 C73.666368,23.0205312 74.6937216,20.38176 75.2073984,18.9710208 C74.7581184,18.2222208 74.2818816,17.506368 73.7771904,16.8234624 C73.7457408,16.9732224 73.711296,17.1229824 73.6768512,17.2727424 C74.1066624,17.8717824 74.5185024,18.4828032 74.9033856,19.1282688 C74.3897088,20.5449984 73.3623552,23.1717888 72.3050496,24.7637376 C73.3282509,27.6555108 73.8646835,30.6969827 73.8925056,33.7643136 C73.8925056,45.6926976 67.7193984,54.1721088 59.2040448,60.023232 L51.1170048,65.414592 C51.0091776,65.4864768 50.8983552,65.5523712 50.7860352,65.6137728 C51.0070313,65.5147377 51.2194218,65.3975221 51.4210176,65.2633344 L59.5080576,59.8719744 C68.0234112,54.0148608 74.1965184,45.54144 74.1965184,33.605568 L74.1965184,33.605568 Z M78.3897984,30.0966912 C78.4841472,31.0177152 78.5395584,31.9746816 78.5695104,32.976576 C77.4696873,34.1206963 76.2917368,35.1870567 75.04416,36.1679616 C75.04416,36.1934208 75.04416,36.21888 75.04416,36.2428416 C76.5911808,35.1271296 78.219072,33.5067264 78.8825088,32.8253184 C78.8570496,31.72608 78.7911552,30.6747648 78.6788352,29.6803584 C78.6114432,29.7762048 78.518592,29.9184768 78.3957888,30.0966912 L78.3897984,30.0966912 Z M78.03936,40.6487808 C77.6365056,40.8973824 76.9521024,41.2972416 76.09248,41.7315456 C77.1048576,41.2388352 77.8985856,40.7745792 78.3478656,40.4975232 C78.533568,39.3992832 78.6718464,38.2885632 78.7627008,37.1653632 L78.4467072,37.4364288 C78.3568512,38.5206912 78.2250624,39.5944704 78.03936,40.6487808 Z M38.0115072,32.7624192 C38.495232,33.3090432 38.9250432,33.7508352 39.2829696,34.0967808 C39.3024384,34.75872 39.3458688,35.4071808 39.4027776,36.0436608 C39.5165952,36.129024 39.6289152,36.211392 39.7412352,36.2922624 C39.66336,35.5239936 39.610944,34.7422464 39.5914752,33.942528 C39.2335488,33.5950848 38.8037376,33.1547904 38.3200128,32.6081664 C37.4848092,31.6894116 36.7217624,30.7075646 36.0376704,29.6713728 C36.0182016,29.846592 36.0077184,30.0322944 35.9912448,30.2105088 C36.6121507,31.1014326 37.2868244,31.953652 38.0115072,32.7624192 L38.0115072,32.7624192 Z M41.6282112,33.7583232 C41.6282112,33.8556672 41.6282112,33.9530112 41.6282112,34.0578432 C41.6985984,33.9859584 41.8019328,33.8856192 41.9277312,33.7583232 C41.9277312,33.7074048 41.9277312,33.6564864 41.9277312,33.6085632 C41.9306376,32.4402181 42.0126943,31.2734121 42.1733376,30.11616 C42.6880297,29.7809205 43.2226645,29.4773439 43.774272,29.2071168 C43.1168497,29.518074 42.4805047,29.8717658 41.8693248,30.26592 C41.7101342,31.4232691 41.6295783,32.590078 41.6282112,33.7583232 Z M51.3506304,48.4213248 C50.7778752,47.720284 50.2554075,46.979621 49.787136,46.2048768 C49.7377152,46.3336704 49.689792,46.4684544 49.637376,46.6062336 C50.0636142,47.2910666 50.5333267,47.9478636 51.0436224,48.5725824 C50.6991744,49.6838016 50.0537088,51.8268672 49.817088,53.0653824 C50.6123136,53.8950528 51.4479744,54.6812928 52.3120896,55.4270976 C52.3345536,55.3087872 52.3570176,55.185984 52.3809792,55.0631808 C51.6007296,54.3787776 50.842944,53.66592 50.1211008,52.9141248 C50.3607168,51.6816 51.0061824,49.532544 51.3506304,48.4213248 Z M43.2096768,24.7248 C42.8204142,25.8344734 42.4988378,26.9667424 42.24672,28.1153664 C42.8547456,27.8158464 44.9214336,26.82144 46.5792768,26.1684864 C46.442496,26.786496 46.3236864,27.4144896 46.222848,28.0524672 L46.522368,27.922176 C46.622208,27.2762112 46.7425152,26.6407296 46.8832896,26.0157312 C45.2254464,26.664192 43.160256,27.6630912 42.5507328,27.9626112 C42.7993217,26.8274255 43.1158856,25.7081997 43.4987136,24.6109824 C43.3968768,24.6514176 43.29504,24.6888576 43.2096768,24.7248 Z M44.64288,45.1700352 C44.1474665,44.1661694 43.7153144,43.1323054 43.3489536,42.074496 C44.1621504,40.71168 45.721152,39.079296 46.6736256,38.1298176 C46.5238656,37.3660416 46.3905792,36.585792 46.3007232,35.7890688 L46.013184,36.0646272 C46.10304,36.8174208 46.2218496,37.5562368 46.3696128,38.2810752 C45.4171392,39.2245632 43.8581376,40.8629376 43.0449408,42.2272512 C43.4385716,43.3667401 43.9083801,44.4784703 44.4511872,45.5549184 C44.49312,45.4710528 44.5620096,45.3362688 44.64288,45.1700352 Z M48.2161536,15.58944 C47.5632,16.428096 46.9536768,17.2937088 46.387584,18.1862784 C47.0150784,18.0649728 48.6819072,17.753472 49.9908096,17.5872384 C49.7137536,18.0215424 49.450176,18.4857984 49.195584,18.9545472 L49.4307072,18.9275904 C49.7062656,18.4054272 49.994304,17.9062272 50.2948224,17.4299904 C48.98592,17.5917312 47.3205888,17.9047296 46.6915968,18.0290304 C47.2277376,17.184384 47.8073088,16.3622016 48.4228224,15.5654784 L48.2161536,15.58944 Z M46.2557952,51.9481728 C44.0368528,51.8475889 41.8334679,51.5260111 39.678336,50.9882112 C39.7202688,51.075072 39.7636992,51.15744 39.805632,51.2428032 C41.9614576,51.7549191 44.1637777,52.0464543 46.3785984,52.1129088 C46.3366656,52.0589952 46.29024,52.0020864 46.2557952,51.9481728 Z M46.5328512,57.3260544 C45.196992,57.312576 44.2505088,57.2646528 43.6364928,57.2197248 C43.6904064,57.282624 43.7458176,57.3410304 43.7997312,57.402432 C44.3987712,57.4368768 45.1924992,57.4668288 46.2288384,57.477312 C47.8908503,57.4751215 49.5512143,57.3725991 51.2008704,57.170304 L51.08256,57.07296 C49.5719535,57.2427787 48.0529726,57.3272776 46.5328512,57.3260544 L46.5328512,57.3260544 Z M47.9810304,50.977728 C48.004992,50.89536 48.0454272,50.7590784 48.0978432,50.5868544 C47.3578754,49.6627114 46.6718335,48.6966523 46.043136,47.6934912 C46.5807744,46.3561344 47.7369216,44.350848 48.319488,43.3684224 C47.9693594,42.5614466 47.6604556,41.7372034 47.3939712,40.89888 C47.3131008,41.0052096 47.233728,41.1175296 47.1528576,41.2313472 C47.4104448,42.0235776 47.697984,42.7888512 48.0154752,43.51968 C47.4329088,44.500608 46.2767616,46.51488 45.7391232,47.8447488 C46.4205302,48.9346916 47.1692876,49.9810513 47.9810304,50.977728 L47.9810304,50.977728 Z M42.6480768,39.6573696 C42.3619894,38.4586096 42.1618011,37.2409642 42.0490368,36.0137088 C43.4927232,34.4082816 45.42912,33.1532928 46.1419776,32.7189888 C46.1419776,32.0360832 46.1669376,31.3576704 46.2168576,30.6837504 C46.1135232,30.7406592 46.013184,30.7990656 45.9173376,30.8589696 C45.8704128,31.5249024 45.8454528,32.195328 45.8424576,32.8702464 C45.1296,33.306048 43.1932032,34.5595392 41.7495168,36.1649664 C41.8676888,37.4573663 42.0834597,38.7389749 42.3949824,39.9988224 L42.6480768,39.6573696 Z M39.910464,27.57024 C39.7816704,28.1528064 39.6798336,28.7368704 39.58848,29.3179392 C39.6663552,29.4167808 39.73824,29.51712 39.8221056,29.6174592 C39.9219456,28.8876288 40.052736,28.1558016 40.2144768,27.4219776 C39.2826424,25.8440411 38.4648632,24.2014759 37.7673984,22.5068544 C37.7074944,22.6566144 37.6550784,22.8183552 37.5981696,22.9711104 C38.2630332,24.5551451 39.0356057,26.0917839 39.910464,27.57024 L39.910464,27.57024 Z M50.7366144,12.7185408 C50.1904896,13.2726528 49.6653312,13.844736 49.1611392,14.4347904 C50.3764314,14.2937564 51.5993854,14.2292324 52.8227712,14.2416 C52.436368,14.5732338 52.0712296,14.9288686 51.7295232,15.3063936 L51.8882688,15.3063936 C52.2723868,14.8732584 52.6862281,14.4674238 53.126784,14.09184 C51.903383,14.0807084 50.680475,14.1457301 49.465152,14.286528 C49.9683456,13.6979712 50.4940032,13.1243904 51.0406272,12.571776 C51.8972544,11.7016704 51.8118912,10.475136 51.8118912,10.475136 C51.7085568,10.5604992 51.6112128,10.6503552 51.5123712,10.737216 C51.5078784,11.0592 51.4404864,12.0086784 50.7366144,12.721536 L50.7366144,12.7185408 Z M41.9472,21.4540416 C41.6985984,22.0051584 41.4724608,22.5637632 41.258304,23.1238656 C41.303232,23.2152192 41.3496576,23.3080704 41.3960832,23.3979264 C41.655168,22.6940544 41.939712,21.9931776 42.2512128,21.3012864 C41.7128944,19.8388678 41.2736043,18.3418791 40.93632,16.8204672 C40.8479616,16.9402752 40.7655936,17.064576 40.6802304,17.1858816 C41.0127254,18.6337378 41.4358826,20.0592674 41.9472,21.4540416 L41.9472,21.4540416 Z M48.2131584,12.2063616 C47.8956672,12.5328384 47.593152,12.871296 47.2921344,13.2097536 C47.2921344,13.2636672 47.2921344,13.3235712 47.3056128,13.3744896 C47.6949888,12.9232128 48.0988416,12.4829184 48.5171712,12.0536064 C48.6010368,10.7491968 48.7957248,9.456768 48.8706048,9 C48.8092032,9.0494208 48.6893952,9.14976 48.5456256,9.2830464 C48.4602624,9.8206848 48.289536,11.0037888 48.2116608,12.2063616 L48.2131584,12.2063616 Z M44.9813376,16.1180928 C44.6893056,16.5359232 44.410752,16.959744 44.1396864,17.3880576 C44.1576576,17.4674304 44.1771264,17.5468032 44.1965952,17.6231808 C44.5410432,17.06208 44.9039616,16.5094656 45.2853504,15.9653376 C45.1095644,14.7769323 44.995096,13.5802628 44.9424,12.3800832 C44.8420608,12.4759296 44.7462144,12.5777664 44.64288,12.6796032 C44.710272,14.0514048 44.8480512,15.2345088 44.9813376,16.1180928 Z" id="Shape" fill="url(#linearGradient-3)" fill-rule="nonzero"></path>
                    <path d="M69.5299968,97.2490752 L75.6237312,97.2490752 L75.6237312,98.5969152 L67.3794432,98.5969152 L67.3794432,89.3117952 L75.2792832,89.3117952 L75.2792832,90.6461568 L69.5299968,90.6461568 L69.5299968,93.082752 L73.157184,93.082752 L73.157184,94.4021376 L69.5299968,94.4021376 L69.5299968,97.2490752 Z M14.8061952,94.1969664 L11.7241344,89.3073024 L9,89.3073024 L9,98.5924224 L10.5485184,98.5924224 L10.5485184,91.645056 L14.031936,97.178688 L14.548608,97.178688 L17.7879168,91.6585344 L17.7879168,98.5984128 L19.93248,98.5984128 L19.93248,89.3132928 L17.6740992,89.3132928 L14.8061952,94.1969664 Z M31.3576704,89.3073024 L29.2490496,89.3073024 L24.8476032,98.5924224 L26.5398912,98.5924224 L27.502848,96.3969408 L32.1873408,96.3969408 L33.2191872,98.5924224 L35.7276672,98.5924224 L31.3576704,89.3073024 Z M28.0015488,95.239296 L29.764224,91.285632 L31.628736,95.239296 L28.0015488,95.239296 Z M53.7273216,90.641664 L56.8827648,90.641664 L56.8827648,98.5984128 L59.01984,98.5984128 L59.01984,90.641664 L62.2306944,90.641664 L62.2306944,89.3073024 L53.7273216,89.3073024 L53.7273216,90.641664 Z M101.365978,92.6903808 C99.9612288,92.5915392 98.1536256,92.5765632 98.1536256,91.5147648 C98.1536256,90.4529664 99.4011264,90.28224 100.39104,90.28224 C101.772966,90.2936597 103.127619,90.6680874 104.319245,91.368 L105.106982,90.2627712 C104.004749,89.5469184 102.570048,89.001792 100.406016,89.001792 C98.3977344,89.001792 96.1183872,89.750592 96.1183872,92.0703744 C96.1183872,94.2344064 98.8574976,94.7795328 100.777421,94.8663936 C102.168691,94.9233024 103.645325,94.9951872 103.645325,96.0989184 C103.645325,97.2595584 102.447245,97.575552 100.849306,97.575552 C99.2814931,97.5766046 97.7616873,97.034724 96.5481984,96.0420096 L95.6496384,97.1307648 C96.7398912,97.9634304 98.4321792,98.8515072 100.912205,98.8515072 C103.062758,98.8515072 105.715008,98.077248 105.715008,95.5567872 C105.710515,93.2789376 103.23049,92.8191744 101.365978,92.6903808 L101.365978,92.6903808 Z M88.22304,94.3796736 C89.0122752,94.2928128 89.75808,94.0067712 90.2448,93.5350272 C90.6428295,93.1566731 90.8744379,92.6358233 90.888768,92.086848 C90.9075979,91.4129471 90.661325,90.7585496 90.2028672,90.2642688 C89.4989952,89.578368 88.5809664,89.3073024 86.530752,89.3073024 L81.2352384,89.3073024 L81.2352384,98.5924224 L83.385792,98.5924224 L83.385792,94.6986624 L85.8523392,94.6986624 L88.3024128,98.5924224 L90.9681408,98.5924224 L88.22304,94.3796736 Z M83.39328,93.4811136 L83.39328,90.551808 L86.20128,90.551808 C87.4937088,90.551808 88.5689856,90.7554816 88.5689856,92.0284416 C88.5689856,92.9734272 87.6704256,93.4766208 86.530752,93.4766208 L83.39328,93.4811136 Z M45.2733696,92.6948736 C43.8686208,92.596032 42.0625152,92.581056 42.0625152,91.5192576 C42.0625152,90.4574592 43.310016,90.2867328 44.298432,90.2867328 C45.6774051,90.2980978 47.0292835,90.6709229 48.2191488,91.368 L49.008384,90.2627712 C47.9046528,89.5469184 46.469952,89.001792 44.30592,89.001792 C42.2976384,89.001792 40.0182912,89.750592 40.0182912,92.0703744 C40.0182912,94.2344064 42.7574016,94.7795328 44.6773248,94.8663936 C46.0685952,94.9233024 47.5452288,94.9951872 47.5452288,96.0989184 C47.5452288,97.2595584 46.3471488,97.575552 44.7492096,97.575552 C43.1825042,97.5772796 41.6634249,97.0370567 40.4496,96.0465024 L39.55104,97.1352576 C40.6412928,97.9679232 42.3335808,98.856 44.8136064,98.856 C46.96416,98.856 49.6164096,98.0817408 49.6164096,95.56128 C49.6104192,93.2789376 47.1303936,92.8191744 45.2658816,92.6903808 L45.2733696,92.6948736 Z M87.713856,79.229952 L84.6602496,74.9707776 L82.0139904,74.9707776 L86.186304,80.562816 L86.186304,84.261888 L88.3368576,84.261888 L88.3368576,80.562816 L92.6095104,74.9707776 L90.6731136,74.9707776 L87.713856,79.229952 Z M29.0888064,80.0446464 C29.8780416,79.9592832 30.6238464,79.671744 31.1105664,79.2014976 C31.506792,78.8212553 31.7380151,78.3007343 31.7545344,77.7518208 C31.7727251,77.0781975 31.5259095,76.4243242 31.067136,75.9307392 C30.3647616,75.2433408 29.4452352,74.96928 27.3965184,74.96928 L22.0995072,74.96928 L22.0995072,84.2544 L24.2470656,84.2544 L24.2470656,80.3711232 L26.7136128,80.3711232 L29.1666816,84.2544 L31.8339072,84.2544 L29.0888064,80.0446464 Z M24.2545536,79.1460864 L24.2545536,76.212288 L27.0655488,76.212288 C28.3579776,76.212288 29.4302592,76.4129664 29.4302592,77.6889216 C29.4302592,78.6354048 28.5421824,79.1371008 27.3965184,79.1371008 L24.2545536,79.1460864 Z M45.6807168,83.4202368 C46.5792768,82.5890688 46.7559936,81.5856768 46.7559936,80.6391936 L46.7559936,74.9662848 L45.1999872,74.9662848 L45.1999872,80.443008 C45.1999872,82.0484352 44.425728,83.2390272 42.3320832,83.2390272 C40.4690688,83.2390272 39.6663552,82.0409472 39.6663552,80.4864384 L39.6663552,74.9662848 L37.52928,74.9662848 L37.52928,80.630208 C37.52928,81.7489152 37.6445952,82.636992 38.5910784,83.483136 C39.2934528,84.0986496 40.397184,84.5584128 42.1613568,84.5584128 C43.9255296,84.5584128 44.9858304,84.0417408 45.6732288,83.4112512 L45.6807168,83.4202368 Z M60.1864704,82.3824 C59.5657642,82.9839911 58.7276636,83.308208 57.8636928,83.28096 C55.9557504,83.28096 54.5225472,81.9196416 54.5225472,79.7256576 C54.5225472,77.4882432 55.7565696,75.882816 57.7199232,75.882816 C59.2175232,75.882816 60.2149248,76.54176 61.2617472,77.3309952 L62.2786176,76.2991488 C61.0176384,75.2807808 59.7132288,74.6353152 57.7334016,74.6353152 C54.4791168,74.6353152 51.9706368,76.7723904 51.9706368,79.7271552 C51.9706368,82.6235136 54.6947712,84.5733888 57.6061056,84.5733888 C60.0277248,84.5733888 61.1898624,83.7407232 62.4074112,82.7238528 L62.4074112,79.3872 L60.1864704,79.3872 L60.1864704,82.3824 Z M75.628224,79.3872 L75.628224,79.3003392 C76.676544,79.1865216 77.8940928,78.5275776 77.8940928,77.305536 C77.9066544,76.8207379 77.7317839,76.3497678 77.4058752,75.9906432 C76.8068352,75.3002496 75.7585152,74.9707776 73.7083008,74.9707776 L68.6164608,74.9707776 L68.6164608,84.2558976 L74.392704,84.2558976 C76.0730112,84.2558976 77.1018624,83.8710144 77.717376,83.2390272 C78.1216565,82.8256698 78.3452118,82.2686671 78.33888,81.6905088 C78.33888,80.083584 76.69152,79.4515968 75.628224,79.3872 Z M70.7715072,76.24224 L73.0478592,76.24224 C74.5559424,76.24224 75.5293824,76.3830144 75.5293824,77.5721088 C75.5293824,78.421248 74.9558016,78.8375808 73.5076224,78.8375808 L70.7715072,78.8375808 L70.7715072,76.24224 Z M73.5345792,83.0068992 L70.7715072,83.0068992 L70.7715072,80.0401536 L73.7352576,80.0401536 C75.298752,80.0401536 75.8873088,80.6391936 75.8873088,81.5766912 C75.8873088,82.8526464 74.8704384,82.9934208 73.5345792,82.9934208 L73.5345792,83.0068992 Z" id="Shape" fill="#141630" fill-rule="nonzero"></path>
                </g>
            </g>
        </g>
    </g>
</svg>