<?xml version="1.0" encoding="UTF-8"?>
<svg width="24px" height="23px" viewBox="0 0 24 23" version="1.1" xmlns="http://www.w3.org/2000/svg" xmlns:xlink="http://www.w3.org/1999/xlink">
    <title>A10BED56-CC6F-43E8-8EDC-88DE3796F5EF</title>
    <g id="Desktop-UI" stroke="none" stroke-width="1" fill="none" fill-rule="evenodd">
        <g id="Class-Overview" transform="translate(-1073.000000, -39.000000)">
            <g id="header_cart_icon" transform="translate(1073.000000, 39.000000)">
                <rect id="Rectangle" x="0.5" y="0" width="23" height="23"></rect>
                <path d="M6.833328,2 L3,2 L3,3.6 L5.57472,3.6 L7.78976,13.74208 L7.8,13.74208 L7.8,14 L18.2,14 L18.2,13.80152 L19.95456,6.07276 L20.22464,5.2 L7.52416,5.2 L7.06788,3.110816 L6.833328,2 Z M18.18952,6.8 L7.8736,6.8 L9.096648,12.4 L16.91824,12.4 L18.18952,6.8 Z" id="Shape" fill="#141630"></path>
                <path d="M10.2,19 C11.08368,19 11.8,18.28368 11.8,17.4 C11.8,16.51632 11.08368,15.8 10.2,15.8 C9.316344,15.8 8.6,16.51632 8.6,17.4 C8.6,18.28368 9.316344,19 10.2,19 Z" id="Path" fill="#141630" fill-rule="nonzero"></path>
                <path d="M17.4,17.4 C17.4,18.28368 16.68368,19 15.8,19 C14.91632,19 14.2,18.28368 14.2,17.4 C14.2,16.51632 14.91632,15.8 15.8,15.8 C16.68368,15.8 17.4,16.51632 17.4,17.4 Z" id="Path" fill="#141630" fill-rule="nonzero"></path>
            </g>
        </g>
    </g>
</svg>