<?xml version="1.0" encoding="UTF-8"?>
<svg width="23px" height="23px" viewBox="0 0 23 23" version="1.1" xmlns="http://www.w3.org/2000/svg" xmlns:xlink="http://www.w3.org/1999/xlink">
    <title>D35EDD49-701F-472E-B856-28FB002E8878</title>
    <g id="Desktop-UI" stroke="none" stroke-width="1" fill="none" fill-rule="evenodd">
        <g id="Class-Overview" transform="translate(-963.000000, -38.000000)">
            <g id="header_search_icon" transform="translate(963.000000, 38.000000)">
                <rect id="Rectangle" x="0" y="0" width="23" height="23"></rect>
                <path d="M16.319,15.4326 C18.7628,12.2941 18.542,7.75347 15.6569,4.86829 C12.5327,1.744098 7.46734,1.744098 4.34315,4.86829 C1.21895,7.99249 1.21895,13.0578 4.34315,16.182 C7.22833,19.0672 11.769,19.2879 14.9075,16.8442 C14.921,16.8595 14.9351,16.8745 14.9497,16.8891 L19.1924,21.1317 C19.5829,21.5223 20.2161,21.5223 20.6066,21.1317 C20.9971,20.7412 20.9971,20.1081 20.6066,19.7175 L16.364,15.4749 C16.3493,15.4603 16.3343,15.4462 16.319,15.4326 Z M14.2426,6.28251 C16.5858,8.62565 16.5858,12.4246 14.2426,14.7678 C11.8995,17.1109 8.1005,17.1109 5.75736,14.7678 C3.41421,12.4246 3.41421,8.62565 5.75736,6.28251 C8.1005,3.93936 11.8995,3.93936 14.2426,6.28251 Z" id="Shape" fill="#141630"></path>
            </g>
        </g>
    </g>
</svg>