<?xml version="1.0" encoding="UTF-8"?>
<svg width="97px" height="90px" viewBox="0 0 97 90" version="1.1" xmlns="http://www.w3.org/2000/svg" xmlns:xlink="http://www.w3.org/1999/xlink">
    <title>A6FB6831-4A30-4364-BD82-6DCE94FF9251</title>
    <defs>
        <linearGradient x1="24.229229%" y1="86.5011769%" x2="75.7687879%" y2="18.2348295%" id="linearGradient-1">
            <stop stop-color="#E15B11" offset="0%"></stop>
            <stop stop-color="#EB9845" offset="54%"></stop>
            <stop stop-color="#FFCE8E" offset="65%"></stop>
            <stop stop-color="#FFB677" offset="73%"></stop>
            <stop stop-color="#EF7D3F" offset="100%"></stop>
        </linearGradient>
        <linearGradient x1="29.5935949%" y1="96.3094243%" x2="68.9884673%" y2="5.92855231%" id="linearGradient-2">
            <stop stop-color="#E15B11" offset="0%"></stop>
            <stop stop-color="#EB9845" offset="54%"></stop>
            <stop stop-color="#FFCE8E" offset="64%"></stop>
            <stop stop-color="#FFB677" offset="72%"></stop>
            <stop stop-color="#EF7D3F" offset="100%"></stop>
        </linearGradient>
        <linearGradient x1="27.9265631%" y1="81.5970581%" x2="75.6425398%" y2="18.2453375%" id="linearGradient-3">
            <stop stop-color="#EB9845" offset="0%"></stop>
            <stop stop-color="#FFB677" offset="37%"></stop>
            <stop stop-color="#F8B789" offset="62%"></stop>
            <stop stop-color="#EF8F32" offset="84%"></stop>
            <stop stop-color="#F7BF88" offset="100%"></stop>
        </linearGradient>
    </defs>
    <g id="Mobile-UI-" stroke="none" stroke-width="1" fill="none" fill-rule="evenodd">
        <g id="Class-Details" transform="translate(-159.000000, -3243.000000)" fill-rule="nonzero">
            <g id="Mobile-Footer-UI" transform="translate(0.000000, 3211.000000)">
                <g id="mobile_footer_logo" transform="translate(159.000000, 32.000000)">
                    <path d="M31.2144768,18.42048 C30.2826424,16.8425435 29.4648632,15.1999783 28.7673984,13.5053568 C28.4177962,14.3910207 28.1178113,15.2954751 27.8688384,16.2145152 C28.4873472,17.3002752 29.6015616,19.1378304 30.8221056,20.6159616 C30.9239424,19.8861312 31.0547328,19.154304 31.2144768,18.42048 Z M36.2853504,6.9653376 C36.1095644,5.7769323 35.995096,4.58026277 35.9424,3.3800832 C35.4432,3.8503296 34.9554816,4.333056 34.4792448,4.8282624 C34.6525999,6.10457204 34.8910289,7.37119476 35.1936,8.6231808 C35.5400448,8.0660736 35.9039616,7.5134592 36.2853504,6.9653376 L36.2853504,6.9653376 Z M65.602368,20.951424 C66.9337344,19.4253696 68.1737472,17.3826432 68.8416768,16.2145152 C68.5927012,15.2959664 68.2927159,14.3920105 67.9431168,13.5068544 C66.7540224,16.3103616 65.7700992,18.0221184 65.153088,18.9656064 C65.3283072,19.6275456 65.4765696,20.2894848 65.602368,20.951424 Z M51.2418816,29.1103488 L48.8322432,29.1103488 L48.8322432,26.889408 L51.2418816,26.889408 L51.2418816,25.7377536 L48.8322432,25.7377536 L48.8322432,23.51232 L51.2418816,23.51232 L51.2418816,22.3606656 L48.8322432,22.3606656 L48.8322432,20.1442176 L51.2418816,20.1442176 L51.2418816,18.9910656 L48.8322432,18.9910656 L48.8322432,16.77312 L51.2418816,16.77312 L51.2418816,15.619968 L45.4686336,15.619968 L45.4686336,16.77312 L47.878272,16.77312 L47.878272,18.9925632 L45.4686336,18.9925632 L45.4686336,20.1457152 L47.878272,20.1457152 L47.878272,22.366656 L45.4686336,22.366656 L45.4686336,23.51232 L47.878272,23.51232 L47.878272,25.7332608 L45.4686336,25.7332608 L45.4686336,26.8849152 L47.878272,26.8849152 L47.878272,29.105856 L45.4686336,29.105856 L45.4686336,30.2575104 L51.2418816,30.2575104 L51.2418816,29.1103488 Z M33.24672,12.3012864 C32.7084016,10.8388678 32.2691115,9.34187909 31.9318272,7.8204672 C31.4185986,8.512693 30.9407515,9.23046325 30.5001216,9.9710208 C31.0373178,11.4847966 31.6690507,12.9633417 32.3915904,14.3979264 C32.64768,13.6940544 32.9382144,12.9931776 33.24672,12.3012864 Z M39.5126784,3.0536064 C39.596544,1.7491968 39.791232,0.456768 39.866112,0 C39.5875584,0.22464 38.1648384,1.542528 38.1648384,1.542528 C38.1648384,2.6222976 38.2307328,3.5987328 38.30112,4.3744896 C38.6924928,3.9242112 39.097344,3.4839168 39.5156736,3.0536064 L39.5126784,3.0536064 Z M30.7412352,27.2952576 C30.66336,26.5269888 30.610944,25.7452416 30.5914752,24.9455232 C30.2335488,24.59808 29.8037376,24.1577856 29.3200128,23.6111616 C28.4848092,22.6924068 27.7217624,21.7105598 27.0376704,20.674368 C26.926848,21.6747648 26.8609536,22.72608 26.8339968,23.819328 C27.503424,24.5172096 29.173248,26.178048 30.7412352,27.2952576 Z M51.6911616,51.824448 L51.3916416,52.0386048 L49.6783872,53.1827712 L54.288,56.2588416 C55.0257714,56.7482252 55.8916854,57.0087288 56.7770112,57.007645 L60.1241472,57.007645 L51.6911616,51.824448 Z M56.174976,48.2107392 C55.4621184,48.8756736 54.7228032,49.5151488 53.9570304,50.1291648 C55.8559872,50.5874304 57.7639296,50.8779648 58.8526848,51.0277248 C59.9129856,50.416704 61.0062336,49.4627328 62.0725248,48.22272 C61.4600064,48.267648 60.5120256,48.3155712 59.177664,48.3290496 C58.1323392,48.33504 57.0690432,48.2796288 56.174976,48.2107392 Z M68.4897408,35.3718144 C68.0254848,35.5919616 67.3440768,35.8989696 66.3616512,36.3063168 C65.4046848,36.7031808 64.5795072,36.9847296 63.9235584,37.1839104 C63.5629145,38.0736647 63.1570348,38.9444067 62.7075072,39.7927296 C65.0812032,39.4662528 66.6536832,38.9795328 67.4204544,38.7009792 C67.8158208,37.6286976 68.1752448,36.5174784 68.4897408,35.3718144 L68.4897408,35.3718144 Z M66.0321792,41.9882112 C64.3276663,42.4125388 62.592691,42.7034538 60.8429952,42.8583168 C60.2589312,43.6989696 59.634432,44.5091712 58.9694976,45.2889216 C60.7326907,45.4098949 62.5028547,45.385351 64.262016,45.2155392 C64.9110757,44.1731957 65.5020312,43.0957768 66.0321792,41.9882112 Z M31.4675712,31.5184896 C30.4551936,30.9284352 28.9216512,29.9010816 26.9463168,28.1683584 C27.0361728,29.2915584 27.1754496,30.4042752 27.361152,31.4975232 C28.8660015,32.4209142 30.4612377,33.1881732 32.1220224,33.7873536 C31.8734208,33.0505344 31.6552704,32.2942464 31.4675712,31.5184896 Z M65.1066624,33.5971584 C66.5809032,33.0269105 68.0008588,32.3252029 69.3493632,31.5005184 C69.5350656,30.4022784 69.673344,29.2915584 69.7641984,28.1683584 C68.466845,29.3253268 67.075802,30.3727416 65.6053632,31.29984 C65.4695808,32.0845824 65.3033472,32.8503552 65.1066624,33.5971584 Z M65.1965184,24.6115584 C65.168835,21.5447028 64.632396,18.5037008 63.6090624,15.61248 C64.666368,14.0205312 65.6937216,11.38176 66.2073984,9.9710208 C65.7581184,9.2222208 65.2818816,8.506368 64.7771904,7.8234624 C64.3179871,9.84685732 63.6897858,11.8281459 62.8992,13.7464704 C62.3665353,12.4710081 61.7527616,11.2309552 61.0616448,10.03392 C61.618752,8.68608 62.0260992,6.2809344 62.2357632,4.8282624 C61.7595264,4.3290624 61.271808,3.8468352 60.772608,3.3815808 C60.7023988,5.11414833 60.4910361,6.83810663 60.1406208,8.53632 C59.5486344,7.6268206 58.911352,6.74762078 58.2311808,5.9020416 C58.4321303,4.45895087 58.5361968,3.00402098 58.5426816,1.5470208 L57.6710784,0.681408 C57.39552,0.44928 57.118464,0.22464 56.841408,0 C56.94624,0.651456 57.3041664,3.0371328 57.2217984,4.7054592 C56.196718,3.54819385 55.0858448,2.46986091 53.898624,1.4796288 C53.898624,1.4796288 53.8132608,2.7001728 54.669888,3.5762688 C55.216512,4.1288832 55.740672,4.702464 56.2453632,5.2910208 C55.0465663,5.15003909 53.8401817,5.08351788 52.633152,5.09184 C53.0727356,5.46803183 53.4851091,5.87490039 53.8671744,6.3093888 C54.9760036,6.29309712 56.0848923,6.33759266 57.1888512,6.4426752 C57.8433024,7.2798336 58.4528256,8.1484416 59.0189184,9.0395136 C58.3959168,8.9197056 56.75904,8.6126976 55.4576256,8.4494592 C55.7571456,8.9217024 56.042688,9.4209024 56.3142528,9.9470592 C57.2652288,10.0578816 58.885632,10.2690432 59.9084928,10.5251328 C60.5126032,11.5963903 61.053658,12.7020024 61.528896,13.8363264 C60.76512,13.5697536 58.9410432,12.9377664 57.485376,12.5394048 C57.7130112,13.1249664 57.9256704,13.7270016 58.1188608,14.3455104 C59.3693568,14.6749824 61.281792,15.2021376 62.1938304,15.582528 C62.5818266,16.6924746 62.9028897,17.8246969 63.1552896,18.9730944 C62.547264,18.6735744 60.4850688,17.6806656 58.8272256,17.0262144 C58.9640064,17.649216 59.0818176,18.2832 59.1806592,18.9281664 C60.368256,19.4403456 62.4753792,20.3883264 63.53568,21.1131648 C63.6949554,22.2715094 63.7755113,23.4393202 63.7767936,24.6085632 C63.7767936,24.7074048 63.7767936,24.8032512 63.7767936,24.9005952 C62.4959084,23.6428394 61.0541787,22.5601573 59.4891648,21.6807552 C59.5340928,22.3536768 59.5575552,23.030592 59.559552,23.7115008 C60.2604288,24.1383168 62.2162944,25.4007936 63.6689664,27.016704 C63.5488317,28.309156 63.3315649,29.5907296 63.019008,30.85056 C61.922181,29.3931668 60.7064621,28.0291773 59.3843328,26.7725952 C59.2944768,27.5693184 59.1686784,28.349568 59.0144256,29.113344 C59.963904,30.0538368 61.5393792,31.704192 62.3585664,33.0774912 C61.9638988,34.2160962 61.4941181,35.32726 60.95232,36.4036608 C60.6932352,35.8720128 59.4876672,33.456384 58.3000704,31.8794112 C58.0357685,32.7186777 57.7288616,33.5439274 57.380544,34.3519488 C57.9601152,35.328384 59.1267456,37.3471488 59.6673792,38.6949888 C58.9834668,39.7843477 58.2332527,40.8306463 57.4209792,41.827968 C57.2712192,41.3097984 56.5314048,38.832768 55.9233792,37.200384 C55.4558879,37.9782462 54.9344434,38.7223805 54.36288,39.4273152 C54.707328,40.5385344 55.351296,42.6771072 55.5879168,43.9081344 C54.7926912,44.7363072 53.9570304,45.5225472 53.0929152,46.268352 C52.7933952,44.6988672 52.3231488,42.524352 52.1254656,41.640768 C51.4943374,42.1362176 50.7920391,42.5335639 50.042304,42.8193792 L50.4481536,48.3455232 C49.7607552,48.8427264 49.0643712,49.323456 48.3515136,49.7697408 C47.6431488,49.3204608 46.9482624,48.8427264 46.2548736,48.3455232 L46.6622208,42.8044032 C45.9137521,42.5155721 45.2122383,42.1173747 44.5805568,41.6227968 C44.3858688,42.501888 43.9051392,44.688384 43.610112,46.2653568 C42.7459968,45.5165568 41.910336,44.733312 41.1151104,43.9051392 C41.3517312,42.6726144 41.9971968,40.5295488 42.3416448,39.4123392 C41.7688896,38.7112984 41.2464219,37.9706354 40.7781504,37.1958912 C40.1626368,38.8297728 39.4303104,41.2993152 39.2805504,41.8174848 C38.4673083,40.8209039 37.7170503,39.774544 37.0341504,38.6845056 C37.5717888,37.3471488 38.727936,35.3418624 39.3105024,34.3594368 C38.9637004,33.5552293 38.6577992,32.7339944 38.3939712,31.89888 C37.2108672,33.4758528 36.0157824,35.8735104 35.7581952,36.4021632 C35.2156495,35.32508 34.7458494,34.2128696 34.3519488,33.0729984 C35.1651456,31.7101824 36.7241472,30.0777984 37.6766208,29.12832 C37.5268608,28.364544 37.3935744,27.5842944 37.3037184,26.7875712 C35.9916977,28.0406136 34.7850505,29.3995318 33.696,30.85056 C33.3842356,29.5907627 33.1684616,28.3091356 33.0505344,27.016704 C34.4942208,25.4112768 36.4306176,24.156288 37.1434752,23.721984 C37.1434752,23.0390784 37.1684352,22.3606656 37.2183552,21.6867456 C35.6574505,22.5644873 34.219724,23.6451742 32.9427072,24.9005952 C32.9427072,24.8032512 32.9427072,24.7074048 32.9427072,24.6085632 C32.9406504,23.4405571 33.0177035,22.2737526 33.1733376,21.11616 C34.235136,20.3913216 36.3362688,19.4448384 37.5253632,18.9326592 C37.6252032,18.2866944 37.7455104,17.6512128 37.8862848,17.0262144 C36.2284416,17.6746752 34.1632512,18.6735744 33.553728,18.9730944 C33.8051369,17.8219923 34.1262142,16.6872191 34.5151872,15.57504 C35.4302208,15.193152 37.3606272,14.6630016 38.6066304,14.3335296 C38.802816,13.7135232 39.0184704,13.1099904 39.2476032,12.5244288 C37.7949312,12.9287808 35.9528832,13.560768 35.1846144,13.8288384 C35.6609907,12.6947759 36.2025277,11.5892004 36.8065152,10.5176448 C37.836864,10.25856 39.484224,10.0459008 40.4307072,9.936576 C40.7062656,9.4144128 40.994304,8.9152128 41.2948224,8.438976 C39.98592,8.6007168 38.3205888,8.9137152 37.6915968,9.038016 C38.2576896,8.139456 38.8672128,7.278336 39.5201664,6.4411776 C40.6394798,6.33371077 41.7639804,6.28971074 42.8882688,6.3093888 C43.2722817,5.87522275 43.6861254,5.46838488 44.126784,5.09184 C42.903383,5.08070842 41.680475,5.14573011 40.465152,5.286528 C40.9683456,4.6979712 41.4940032,4.1243904 42.0406272,3.571776 C42.8972544,2.7016704 42.8118912,1.475136 42.8118912,1.475136 C41.6246704,2.46536811 40.5137972,3.54370105 39.4887168,4.7009664 L39.4887168,4.6889856 C39.4452864,4.7384064 39.4063488,4.79232 39.364416,4.8387456 C34.3534464,10.5475968 31.5124992,17.9157888 31.5124992,24.59808 C31.5124992,29.4862464 32.550336,33.793344 34.3579392,37.5792768 C33.9625728,37.5028992 32.4814464,37.1839104 30.3458688,36.2988288 C29.3649408,35.8914816 28.6820352,35.5844736 28.2192768,35.3643264 C28.5322752,36.5099904 28.8916992,37.6212096 29.2885632,38.6919936 C30.2170752,39.0319488 32.3361792,39.6774144 35.6413824,39.9694464 C36.2616778,41.0033287 36.9427856,41.9994863 37.6811136,42.9526656 C35.3181145,42.8824846 32.9696645,42.5566039 30.6768384,41.9807232 C31.2063469,43.0891012 31.7973209,44.1670537 32.4470016,45.2095488 C34.3414656,45.4252032 36.8080128,45.3952512 39.53664,45.1466496 C40.4707755,46.1567647 41.4612711,47.1132605 42.5033856,48.0115584 C40.8535875,48.2123068 39.1933162,48.3148235 37.5313536,48.3185664 C36.1954944,48.305088 35.2490112,48.2571648 34.6349952,48.2122368 C35.702784,49.4522496 36.796032,50.4077184 37.8563328,51.0172416 C39.289536,50.8255488 42.1394688,50.3807616 44.5146624,49.6394496 C45.0657792,50.0577792 45.6278784,50.4636288 46.20096,50.8569984 L46.380672,50.978304 L36.5908608,57.0136354 L39.9379968,57.0136354 C40.8233226,57.0147192 41.6892366,56.7542156 42.427008,56.264832 L50.514048,50.873472 C59.0234112,45.0148608 65.1965184,36.54144 65.1965184,24.605568 L65.1965184,24.6115584 Z M67.392,23.6111616 C66.8798208,24.1907328 66.4275456,24.6594816 66.0576384,25.0069248 C66.0576384,25.264512 66.0756096,25.5235968 66.0756096,25.7781888 C66.0756096,26.2738944 66.0606336,26.7606144 66.0396672,27.2428416 C67.586688,26.1271296 69.2145792,24.5067264 69.878016,23.8253184 C69.8525568,22.72608 69.7866624,21.6747648 69.6743424,20.6803584 C68.9905467,21.71488 68.2274736,22.6947581 67.392,23.6111616 L67.392,23.6111616 Z" id="Shape" fill="url(#linearGradient-1)"></path>
                    <path d="M31.2144768,18.42048 C30.2826424,16.8425435 29.4648632,15.1999783 28.7673984,13.5053568 C28.4177962,14.3910207 28.1178113,15.2954751 27.8688384,16.2145152 C28.4873472,17.3002752 29.6015616,19.1378304 30.8221056,20.6159616 C30.9239424,19.8861312 31.0547328,19.154304 31.2144768,18.42048 Z M36.2853504,6.9653376 C36.1095644,5.7769323 35.995096,4.58026277 35.9424,3.3800832 C35.4432,3.8503296 34.9554816,4.333056 34.4792448,4.8282624 C34.6525999,6.10457204 34.8910289,7.37119476 35.1936,8.6231808 C35.5400448,8.0660736 35.9039616,7.5134592 36.2853504,6.9653376 L36.2853504,6.9653376 Z M65.602368,20.951424 C66.9337344,19.4253696 68.1737472,17.3826432 68.8416768,16.2145152 C68.5927012,15.2959664 68.2927159,14.3920105 67.9431168,13.5068544 C66.7540224,16.3103616 65.7700992,18.0221184 65.153088,18.9656064 C65.3283072,19.6275456 65.4765696,20.2894848 65.602368,20.951424 Z M51.2418816,29.1103488 L48.8322432,29.1103488 L48.8322432,26.889408 L51.2418816,26.889408 L51.2418816,25.7377536 L48.8322432,25.7377536 L48.8322432,23.51232 L51.2418816,23.51232 L51.2418816,22.3606656 L48.8322432,22.3606656 L48.8322432,20.1442176 L51.2418816,20.1442176 L51.2418816,18.9910656 L48.8322432,18.9910656 L48.8322432,16.77312 L51.2418816,16.77312 L51.2418816,15.619968 L45.4686336,15.619968 L45.4686336,16.77312 L47.878272,16.77312 L47.878272,18.9925632 L45.4686336,18.9925632 L45.4686336,20.1457152 L47.878272,20.1457152 L47.878272,22.366656 L45.4686336,22.366656 L45.4686336,23.51232 L47.878272,23.51232 L47.878272,25.7332608 L45.4686336,25.7332608 L45.4686336,26.8849152 L47.878272,26.8849152 L47.878272,29.105856 L45.4686336,29.105856 L45.4686336,30.2575104 L51.2418816,30.2575104 L51.2418816,29.1103488 Z M33.24672,12.3012864 C32.7084016,10.8388678 32.2691115,9.34187909 31.9318272,7.8204672 C31.4185986,8.512693 30.9407515,9.23046325 30.5001216,9.9710208 C31.0373178,11.4847966 31.6690507,12.9633417 32.3915904,14.3979264 C32.64768,13.6940544 32.9382144,12.9931776 33.24672,12.3012864 Z M39.5126784,3.0536064 C39.596544,1.7491968 39.791232,0.456768 39.866112,0 C39.5875584,0.22464 38.1648384,1.542528 38.1648384,1.542528 C38.1648384,2.6222976 38.2307328,3.5987328 38.30112,4.3744896 C38.6924928,3.9242112 39.097344,3.4839168 39.5156736,3.0536064 L39.5126784,3.0536064 Z M30.7412352,27.2952576 C30.66336,26.5269888 30.610944,25.7452416 30.5914752,24.9455232 C30.2335488,24.59808 29.8037376,24.1577856 29.3200128,23.6111616 C28.4848092,22.6924068 27.7217624,21.7105598 27.0376704,20.674368 C26.926848,21.6747648 26.8609536,22.72608 26.8339968,23.819328 C27.503424,24.5172096 29.173248,26.178048 30.7412352,27.2952576 Z M51.6911616,51.824448 L51.3916416,52.0386048 L49.6783872,53.1827712 L54.288,56.2588416 C55.0257714,56.7482252 55.8916854,57.0087288 56.7770112,57.007645 L60.1241472,57.007645 L51.6911616,51.824448 Z M56.174976,48.2107392 C55.4621184,48.8756736 54.7228032,49.5151488 53.9570304,50.1291648 C55.8559872,50.5874304 57.7639296,50.8779648 58.8526848,51.0277248 C59.9129856,50.416704 61.0062336,49.4627328 62.0725248,48.22272 C61.4600064,48.267648 60.5120256,48.3155712 59.177664,48.3290496 C58.1323392,48.33504 57.0690432,48.2796288 56.174976,48.2107392 Z M68.4897408,35.3718144 C68.0254848,35.5919616 67.3440768,35.8989696 66.3616512,36.3063168 C65.4046848,36.7031808 64.5795072,36.9847296 63.9235584,37.1839104 C63.5629145,38.0736647 63.1570348,38.9444067 62.7075072,39.7927296 C65.0812032,39.4662528 66.6536832,38.9795328 67.4204544,38.7009792 C67.8158208,37.6286976 68.1752448,36.5174784 68.4897408,35.3718144 L68.4897408,35.3718144 Z M66.0321792,41.9882112 C64.3276663,42.4125388 62.592691,42.7034538 60.8429952,42.8583168 C60.2589312,43.6989696 59.634432,44.5091712 58.9694976,45.2889216 C60.7326907,45.4098949 62.5028547,45.385351 64.262016,45.2155392 C64.9110757,44.1731957 65.5020312,43.0957768 66.0321792,41.9882112 Z M31.4675712,31.5184896 C30.4551936,30.9284352 28.9216512,29.9010816 26.9463168,28.1683584 C27.0361728,29.2915584 27.1754496,30.4042752 27.361152,31.4975232 C28.8660015,32.4209142 30.4612377,33.1881732 32.1220224,33.7873536 C31.8734208,33.0505344 31.6552704,32.2942464 31.4675712,31.5184896 Z M65.1066624,33.5971584 C66.5809032,33.0269105 68.0008588,32.3252029 69.3493632,31.5005184 C69.5350656,30.4022784 69.673344,29.2915584 69.7641984,28.1683584 C68.466845,29.3253268 67.075802,30.3727416 65.6053632,31.29984 C65.4695808,32.0845824 65.3033472,32.8503552 65.1066624,33.5971584 Z M65.1965184,24.6115584 C65.168835,21.5447028 64.632396,18.5037008 63.6090624,15.61248 C64.666368,14.0205312 65.6937216,11.38176 66.2073984,9.9710208 C65.7581184,9.2222208 65.2818816,8.506368 64.7771904,7.8234624 C64.3179871,9.84685732 63.6897858,11.8281459 62.8992,13.7464704 C62.3665353,12.4710081 61.7527616,11.2309552 61.0616448,10.03392 C61.618752,8.68608 62.0260992,6.2809344 62.2357632,4.8282624 C61.7595264,4.3290624 61.271808,3.8468352 60.772608,3.3815808 C60.7023988,5.11414833 60.4910361,6.83810663 60.1406208,8.53632 C59.5486344,7.6268206 58.911352,6.74762078 58.2311808,5.9020416 C58.4321303,4.45895087 58.5361968,3.00402098 58.5426816,1.5470208 L57.6710784,0.681408 C57.39552,0.44928 57.118464,0.22464 56.841408,0 C56.94624,0.651456 57.3041664,3.0371328 57.2217984,4.7054592 C56.196718,3.54819385 55.0858448,2.46986091 53.898624,1.4796288 C53.898624,1.4796288 53.8132608,2.7001728 54.669888,3.5762688 C55.216512,4.1288832 55.740672,4.702464 56.2453632,5.2910208 C55.0465663,5.15003909 53.8401817,5.08351788 52.633152,5.09184 C53.0727356,5.46803183 53.4851091,5.87490039 53.8671744,6.3093888 C54.9760036,6.29309712 56.0848923,6.33759266 57.1888512,6.4426752 C57.8433024,7.2798336 58.4528256,8.1484416 59.0189184,9.0395136 C58.3959168,8.9197056 56.75904,8.6126976 55.4576256,8.4494592 C55.7571456,8.9217024 56.042688,9.4209024 56.3142528,9.9470592 C57.2652288,10.0578816 58.885632,10.2690432 59.9084928,10.5251328 C60.5126032,11.5963903 61.053658,12.7020024 61.528896,13.8363264 C60.76512,13.5697536 58.9410432,12.9377664 57.485376,12.5394048 C57.7130112,13.1249664 57.9256704,13.7270016 58.1188608,14.3455104 C59.3693568,14.6749824 61.281792,15.2021376 62.1938304,15.582528 C62.5818266,16.6924746 62.9028897,17.8246969 63.1552896,18.9730944 C62.547264,18.6735744 60.4850688,17.6806656 58.8272256,17.0262144 C58.9640064,17.649216 59.0818176,18.2832 59.1806592,18.9281664 C60.368256,19.4403456 62.4753792,20.3883264 63.53568,21.1131648 C63.6949554,22.2715094 63.7755113,23.4393202 63.7767936,24.6085632 C63.7767936,24.7074048 63.7767936,24.8032512 63.7767936,24.9005952 C62.4959084,23.6428394 61.0541787,22.5601573 59.4891648,21.6807552 C59.5340928,22.3536768 59.5575552,23.030592 59.559552,23.7115008 C60.2604288,24.1383168 62.2162944,25.4007936 63.6689664,27.016704 C63.5488317,28.309156 63.3315649,29.5907296 63.019008,30.85056 C61.922181,29.3931668 60.7064621,28.0291773 59.3843328,26.7725952 C59.2944768,27.5693184 59.1686784,28.349568 59.0144256,29.113344 C59.963904,30.0538368 61.5393792,31.704192 62.3585664,33.0774912 C61.9638988,34.2160962 61.4941181,35.32726 60.95232,36.4036608 C60.6932352,35.8720128 59.4876672,33.456384 58.3000704,31.8794112 C58.0357685,32.7186777 57.7288616,33.5439274 57.380544,34.3519488 C57.9601152,35.328384 59.1267456,37.3471488 59.6673792,38.6949888 C58.9834668,39.7843477 58.2332527,40.8306463 57.4209792,41.827968 C57.2712192,41.3097984 56.5314048,38.832768 55.9233792,37.200384 C55.4558879,37.9782462 54.9344434,38.7223805 54.36288,39.4273152 C54.707328,40.5385344 55.351296,42.6771072 55.5879168,43.9081344 C54.7926912,44.7363072 53.9570304,45.5225472 53.0929152,46.268352 C52.7933952,44.6988672 52.3231488,42.524352 52.1254656,41.640768 C51.4943374,42.1362176 50.7920391,42.5335639 50.042304,42.8193792 L50.4481536,48.3455232 C49.7607552,48.8427264 49.0643712,49.323456 48.3515136,49.7697408 C47.6431488,49.3204608 46.9482624,48.8427264 46.2548736,48.3455232 L46.6622208,42.8044032 C45.9137521,42.5155721 45.2122383,42.1173747 44.5805568,41.6227968 C44.3858688,42.501888 43.9051392,44.688384 43.610112,46.2653568 C42.7459968,45.5165568 41.910336,44.733312 41.1151104,43.9051392 C41.3517312,42.6726144 41.9971968,40.5295488 42.3416448,39.4123392 C41.7688896,38.7112984 41.2464219,37.9706354 40.7781504,37.1958912 C40.1626368,38.8297728 39.4303104,41.2993152 39.2805504,41.8174848 C38.4673083,40.8209039 37.7170503,39.774544 37.0341504,38.6845056 C37.5717888,37.3471488 38.727936,35.3418624 39.3105024,34.3594368 C38.9637004,33.5552293 38.6577992,32.7339944 38.3939712,31.89888 C37.2108672,33.4758528 36.0157824,35.8735104 35.7581952,36.4021632 C35.2156495,35.32508 34.7458494,34.2128696 34.3519488,33.0729984 C35.1651456,31.7101824 36.7241472,30.0777984 37.6766208,29.12832 C37.5268608,28.364544 37.3935744,27.5842944 37.3037184,26.7875712 C35.9916977,28.0406136 34.7850505,29.3995318 33.696,30.85056 C33.3842356,29.5907627 33.1684616,28.3091356 33.0505344,27.016704 C34.4942208,25.4112768 36.4306176,24.156288 37.1434752,23.721984 C37.1434752,23.0390784 37.1684352,22.3606656 37.2183552,21.6867456 C35.6574505,22.5644873 34.219724,23.6451742 32.9427072,24.9005952 C32.9427072,24.8032512 32.9427072,24.7074048 32.9427072,24.6085632 C32.9406504,23.4405571 33.0177035,22.2737526 33.1733376,21.11616 C34.235136,20.3913216 36.3362688,19.4448384 37.5253632,18.9326592 C37.6252032,18.2866944 37.7455104,17.6512128 37.8862848,17.0262144 C36.2284416,17.6746752 34.1632512,18.6735744 33.553728,18.9730944 C33.8051369,17.8219923 34.1262142,16.6872191 34.5151872,15.57504 C35.4302208,15.193152 37.3606272,14.6630016 38.6066304,14.3335296 C38.802816,13.7135232 39.0184704,13.1099904 39.2476032,12.5244288 C37.7949312,12.9287808 35.9528832,13.560768 35.1846144,13.8288384 C35.6609907,12.6947759 36.2025277,11.5892004 36.8065152,10.5176448 C37.836864,10.25856 39.484224,10.0459008 40.4307072,9.936576 C40.7062656,9.4144128 40.994304,8.9152128 41.2948224,8.438976 C39.98592,8.6007168 38.3205888,8.9137152 37.6915968,9.038016 C38.2576896,8.139456 38.8672128,7.278336 39.5201664,6.4411776 C40.6394798,6.33371077 41.7639804,6.28971074 42.8882688,6.3093888 C43.2722817,5.87522275 43.6861254,5.46838488 44.126784,5.09184 C42.903383,5.08070842 41.680475,5.14573011 40.465152,5.286528 C40.9683456,4.6979712 41.4940032,4.1243904 42.0406272,3.571776 C42.8972544,2.7016704 42.8118912,1.475136 42.8118912,1.475136 C41.6246704,2.46536811 40.5137972,3.54370105 39.4887168,4.7009664 L39.4887168,4.6889856 C39.4452864,4.7384064 39.4063488,4.79232 39.364416,4.8387456 C34.3534464,10.5475968 31.5124992,17.9157888 31.5124992,24.59808 C31.5124992,29.4862464 32.550336,33.793344 34.3579392,37.5792768 C33.9625728,37.5028992 32.4814464,37.1839104 30.3458688,36.2988288 C29.3649408,35.8914816 28.6820352,35.5844736 28.2192768,35.3643264 C28.5322752,36.5099904 28.8916992,37.6212096 29.2885632,38.6919936 C30.2170752,39.0319488 32.3361792,39.6774144 35.6413824,39.9694464 C36.2616778,41.0033287 36.9427856,41.9994863 37.6811136,42.9526656 C35.3181145,42.8824846 32.9696645,42.5566039 30.6768384,41.9807232 C31.2063469,43.0891012 31.7973209,44.1670537 32.4470016,45.2095488 C34.3414656,45.4252032 36.8080128,45.3952512 39.53664,45.1466496 C40.4707755,46.1567647 41.4612711,47.1132605 42.5033856,48.0115584 C40.8535875,48.2123068 39.1933162,48.3148235 37.5313536,48.3185664 C36.1954944,48.305088 35.2490112,48.2571648 34.6349952,48.2122368 C35.702784,49.4522496 36.796032,50.4077184 37.8563328,51.0172416 C39.289536,50.8255488 42.1394688,50.3807616 44.5146624,49.6394496 C45.0657792,50.0577792 45.6278784,50.4636288 46.20096,50.8569984 L46.380672,50.978304 L36.5908608,57.0136354 L39.9379968,57.0136354 C40.8233226,57.0147192 41.6892366,56.7542156 42.427008,56.264832 L50.514048,50.873472 C59.0234112,45.0148608 65.1965184,36.54144 65.1965184,24.605568 L65.1965184,24.6115584 Z M67.392,23.6111616 C66.8798208,24.1907328 66.4275456,24.6594816 66.0576384,25.0069248 C66.0576384,25.264512 66.0756096,25.5235968 66.0756096,25.7781888 C66.0756096,26.2738944 66.0606336,26.7606144 66.0396672,27.2428416 C67.586688,26.1271296 69.2145792,24.5067264 69.878016,23.8253184 C69.8525568,22.72608 69.7866624,21.6747648 69.6743424,20.6803584 C68.9905467,21.71488 68.2274736,22.6947581 67.392,23.6111616 L67.392,23.6111616 Z" id="Shape" fill="url(#linearGradient-2)"></path>
                    <path d="M48.52224,20.2954752 L48.82176,20.2954752 L48.82176,22.3651584 L51.2313984,22.3651584 L51.2313984,23.51232 L50.9318784,23.51232 L50.9318784,22.5119232 L48.52224,22.5119232 L48.52224,20.2954752 Z M31.719168,33.643584 C31.8509568,33.6915072 31.9827456,33.740928 32.116032,33.793344 C31.8684288,33.0565248 31.6502784,32.3002368 31.4615808,31.52448 C30.4492032,30.9344256 28.9156608,29.907072 26.9403264,28.1743488 C26.9523072,28.3241088 26.9732736,28.4738688 26.986752,28.6236288 C28.7973504,30.1721472 30.206592,31.120128 31.157568,31.67424 C31.3282944,32.34816 31.5184896,32.9981184 31.7251584,33.643584 L31.719168,33.643584 Z M55.9413504,5.4377856 L55.755648,5.2281216 C54.7402752,5.1232896 53.5976064,5.09184 52.633152,5.0903424 C52.6915584,5.1397632 52.7469696,5.196672 52.8023808,5.2401024 C53.8516632,5.2447429 54.8997761,5.31075001 55.9413504,5.4377856 L55.9413504,5.4377856 Z M48.52224,16.92288 L48.52224,19.1438208 L50.9318784,19.1438208 L50.9318784,20.1442176 L51.2313984,20.1442176 L51.2313984,18.9910656 L48.8322432,18.9910656 L48.8322432,16.92288 L48.52224,16.92288 Z M51.2358912,30.2620032 L51.2358912,29.1103488 L48.8322432,29.1103488 L48.8322432,27.0421632 L48.5327232,27.0421632 L48.5327232,29.2616064 L50.9423616,29.2616064 L50.9423616,30.2620032 L51.2358912,30.2620032 Z M56.9117952,4.8582144 C56.9192832,4.7084544 56.9207808,4.5482112 56.9222784,4.387968 C55.982189,3.35041869 54.9719254,2.37868419 53.898624,1.4796288 C53.8925918,1.623648 53.8986031,1.76791941 53.9165952,1.9109376 C54.9825855,2.82426046 55.9852913,3.80895356 56.9177856,4.8582144 L56.9117952,4.8582144 Z M62.8048512,30.5750016 C61.7638764,29.2189442 60.6181972,27.9465793 59.3783424,26.7696 C59.3633664,26.9013888 59.3424,27.0301824 59.3259264,27.1604736 C60.551941,28.3520696 61.6849406,29.6357686 62.7149952,31.00032 C62.74944,30.8595456 62.7778944,30.715776 62.8108416,30.5750016 L62.8048512,30.5750016 Z M59.5011456,22.01472 C60.9430213,22.8606544 62.2754007,23.8806866 63.468288,25.0518528 C63.468288,24.9545088 63.468288,24.8571648 63.468288,24.7523328 C63.468288,24.7014144 63.468288,24.650496 63.468288,24.6025728 C62.2628379,23.4684286 60.9241774,22.4847998 59.4816768,21.6732672 C59.49216,21.7885824 59.4951552,21.9009024 59.5011456,22.01472 Z M57.365568,0.8281728 L58.2386688,1.6937856 C58.2326421,3.15135304 58.1280708,4.60684522 57.9256704,6.050304 C58.6072,6.89571919 59.2450134,7.77546194 59.836608,8.68608 C59.8605696,8.5797504 59.8935168,8.4254976 59.9309568,8.2278144 C59.3993088,7.4310912 58.8362112,6.6508416 58.2311808,5.8990464 C58.4321303,4.45595567 58.5361968,3.00102578 58.5426816,1.5440256 L57.6710784,0.6784128 C57.39552,0.44928 57.118464,0.22464 56.841408,8.8817842e-16 C56.8593792,0.1078272 56.8833408,0.2665728 56.9117952,0.456768 C57.05856,0.5810688 57.215808,0.703872 57.365568,0.8281728 Z M61.9317504,4.97952 C61.7220864,6.43968 61.3147392,8.83584 60.757632,10.18368 C61.4497687,11.3819063 62.0650257,12.6229246 62.59968,13.8992256 C62.6476032,13.7839104 62.7075072,13.6326528 62.7778944,13.4499456 C62.2728129,12.2788245 61.6997537,11.1382067 61.0616448,10.03392 C61.618752,8.68608 62.0260992,6.2809344 62.2357632,4.8282624 C61.7595264,4.3290624 61.271808,3.8468352 60.772608,3.3815808 C60.772608,3.5313408 60.757632,3.6706176 60.750144,3.811392 C61.1500032,4.19328 61.55136,4.5796608 61.9317504,4.97952 Z M47.5727616,25.9264512 L47.5727616,25.7392512 L45.4686336,25.7392512 L45.4686336,25.9264512 L47.5727616,25.9264512 Z M46.3671936,42.9616512 L45.9598464,48.5027712 C46.6472448,48.9999744 47.3421312,49.4792064 48.0564864,49.9269888 C48.1463424,49.87008 48.2347008,49.8086784 48.3245568,49.750272 C47.6281728,49.3099776 46.9452672,48.8382336 46.2698496,48.350016 L46.6771968,42.808896 C45.9287281,42.5200649 45.2272143,42.1218675 44.5955328,41.6272896 C44.576064,41.7201408 44.5521024,41.8294656 44.5251456,41.9462784 C45.0916814,42.3637261 45.7111028,42.7041561 46.3671936,42.958656 L46.3671936,42.9616512 Z M50.9378688,15.7742208 L50.9378688,16.77312 L51.2373888,16.77312 L51.2373888,15.619968 L45.4686336,15.619968 L45.4686336,15.769728 L50.9378688,15.7742208 Z M50.0393088,42.8223744 L50.0393088,42.8478336 C50.1950592,42.7799424 50.3508096,42.70656 50.50656,42.6276864 C50.3538048,42.696576 50.1965568,42.7624704 50.0408064,42.8193792 L50.0393088,42.8223744 Z M34.055424,37.73952 L33.9446016,37.4969088 C32.7164201,37.1974636 31.5144319,36.799305 30.3503616,36.3063168 C29.3694336,35.8989696 28.686528,35.5919616 28.2237696,35.3718144 C28.2552192,35.4871296 28.2926592,35.597952 28.3256064,35.7117696 C28.7569152,35.9094528 29.3200128,36.1610496 30.0463488,36.4605696 C32.1789312,37.342656 33.6600576,37.6631424 34.055424,37.73952 Z M47.5727616,19.1812608 L47.5727616,18.9940608 L45.4686336,18.9940608 L45.4686336,19.1812608 L47.5727616,19.1812608 Z M47.5727616,29.2990464 L47.5727616,29.1118464 L45.4686336,29.1118464 L45.4686336,29.2990464 L47.5727616,29.2990464 Z M47.5727616,22.5598464 L47.5727616,22.3726464 L45.4686336,22.3726464 L45.4686336,22.5598464 L47.5727616,22.5598464 Z M48.52224,25.8890112 L50.9318784,25.8890112 L50.9318784,26.889408 L51.2313984,26.889408 L51.2313984,25.7377536 L48.8322432,25.7377536 L48.8322432,23.669568 L48.5327232,23.669568 L48.52224,25.8890112 Z M60.8295168,36.16704 C60.4266624,35.3598336 59.3543808,33.2871552 58.29408,31.8794112 C58.2536448,32.0112 58.2057216,32.1355008 58.1622912,32.265792 C59.30496,33.84576 60.4012032,36.0502272 60.6528,36.5549184 C60.712704,36.4276224 60.772608,36.2958336 60.8355072,36.16704 L60.8295168,36.16704 Z M52.7874048,46.4256 C52.8832512,46.3417344 52.9746048,46.253376 53.0704512,46.1680128 C52.7709312,44.6090112 52.3216512,42.5138688 52.123968,41.6452608 C52.026624,41.7186432 51.92928,41.7845376 51.831936,41.8534272 C52.0356096,42.7684608 52.4998656,44.8815744 52.7874048,46.4256 Z M58.8886272,17.3242368 C60.4715904,17.9682048 62.2881792,18.8443008 62.8527744,19.1213568 C62.8273152,19.0090368 62.7988608,18.8967168 62.7734016,18.7843968 C61.9152768,18.3710592 60.2274816,17.5773312 58.8287232,17.0292096 C58.85568,17.1205632 58.8691584,17.2224 58.8886272,17.319744 L58.8886272,17.3242368 Z M60.7471488,42.9945984 C62.4265022,42.8366049 64.091558,42.5522538 65.7281664,42.1439616 C65.219878,43.2055544 64.655484,44.2393603 64.037376,45.2409984 L64.262016,45.220032 C64.9110757,44.1776885 65.5020312,43.1002696 66.0321792,41.992704 C64.3276663,42.4170316 62.592691,42.7079466 60.8429952,42.8628096 C60.8115456,42.9032448 60.7771008,42.9451776 60.7471488,42.9901056 L60.7471488,42.9945984 Z M63.9235584,37.1884032 C63.9145728,37.2108672 63.9040896,37.2318336 63.895104,37.2542976 C64.5031296,37.0611072 65.2264704,36.8050176 66.0576384,36.4620672 C67.0385664,36.0562176 67.721472,35.747712 68.185728,35.5275648 C67.8772224,36.6552576 67.5222912,37.7500032 67.137408,38.8058112 L67.4234496,38.705472 C67.818816,37.6331904 68.1722496,36.5219712 68.492736,35.3763072 C68.02848,35.5964544 67.347072,35.9034624 66.3646464,36.3108096 C65.4046848,36.7031808 64.5795072,36.99072 63.9235584,37.1839104 L63.9235584,37.1884032 Z M55.583424,8.6576256 C56.79648,8.8268544 58.159296,9.082944 58.7149056,9.1892736 C58.6624896,9.1084032 58.6055808,9.030528 58.5546624,8.9496576 C57.7759104,8.7998976 56.5074432,8.5797504 55.4576256,8.4479616 C55.4995584,8.5153536 55.5414912,8.588736 55.583424,8.6576256 Z M57.5857152,12.7984896 C58.9545216,13.1983488 60.525504,13.7359872 61.2203904,13.9785984 C61.1784576,13.8767616 61.132032,13.7764224 61.0886016,13.6790784 C60.1900416,13.3705728 58.7089152,12.8748672 57.4868736,12.5334144 C57.5213184,12.6187776 57.552768,12.7086336 57.5857152,12.7984896 L57.5857152,12.7984896 Z M68.537664,16.3657728 C67.91616,17.4560256 66.7944576,19.2980736 65.5679232,20.7806976 C65.5784064,20.8376064 65.5918848,20.8945152 65.602368,20.951424 C66.9337344,19.4253696 68.1737472,17.3826432 68.8416768,16.2145152 C68.5927012,15.2959664 68.2927159,14.3920105 67.9431168,13.5068544 L67.7484288,13.9561344 C68.0404608,14.7273984 68.3085312,15.5241216 68.537664,16.3657728 Z M55.995264,48.37248 C56.8653696,48.4368768 57.874752,48.4862976 58.8736512,48.477312 C60.2080128,48.4653312 61.154496,48.417408 61.768512,48.37248 C60.787584,49.5121536 59.7856896,50.4062208 58.8062592,51.0187392 L58.8526848,51.0187392 C59.9129856,50.4077184 61.0062336,49.4537472 62.0725248,48.2137344 C61.4600064,48.2586624 60.5120256,48.3065856 59.177664,48.320064 C58.129344,48.3290496 57.0690432,48.2736384 56.182464,48.2047488 C56.1165696,48.2661504 56.055168,48.3170688 55.995264,48.37248 Z M57.3745536,41.655744 C57.1514112,40.906944 56.4864768,38.697984 55.9218816,37.1988864 C55.8470016,37.3231872 55.7721216,37.4414976 55.6942464,37.5613056 C56.2932864,39.1891968 56.9746944,41.4820224 57.1214592,41.977728 C57.20832,41.8713984 57.2891904,41.7635712 57.3745536,41.655744 L57.3745536,41.655744 Z M51.4335744,52.0056576 L59.5685376,57.013632 L60.1196544,57.013632 L51.6911616,51.824448 L51.4335744,52.0056576 Z M38.6066304,14.332032 C38.802816,13.7120256 39.0184704,13.1084928 39.2476032,12.5229312 C37.7949312,12.9272832 35.9528832,13.5592704 35.1846144,13.8273408 C35.6473274,12.7263526 36.1718225,11.6523625 36.7555968,10.610496 C36.6702336,10.6284672 36.5803776,10.647936 36.5025024,10.6674048 C35.8985149,11.7389604 35.3569779,12.8445359 34.8806016,13.9785984 C35.6488704,13.710528 37.4909184,13.0800384 38.9435904,12.6756864 C38.7234432,13.2357888 38.518272,13.8138624 38.3280768,14.4054144 L38.6066304,14.332032 Z M65.1965184,24.605568 C65.168835,21.5387124 64.632396,18.4977104 63.6090624,15.6064896 C64.666368,14.0205312 65.6937216,11.38176 66.2073984,9.9710208 C65.7581184,9.2222208 65.2818816,8.506368 64.7771904,7.8234624 C64.7457408,7.9732224 64.711296,8.1229824 64.6768512,8.2727424 C65.1066624,8.8717824 65.5185024,9.4828032 65.9033856,10.1282688 C65.3897088,11.5449984 64.3623552,14.1717888 63.3050496,15.7637376 C64.3282509,18.6555108 64.8646835,21.6969827 64.8925056,24.7643136 C64.8925056,36.6926976 58.7193984,45.1721088 50.2040448,51.023232 L42.1170048,56.414592 C42.0091776,56.4864768 41.8983552,56.5523712 41.7860352,56.6137728 C42.0070313,56.5147377 42.2194218,56.3975221 42.4210176,56.2633344 L50.5080576,50.8719744 C59.0234112,45.0148608 65.1965184,36.54144 65.1965184,24.605568 L65.1965184,24.605568 Z M69.3897984,21.0966912 C69.4841472,22.0177152 69.5395584,22.9746816 69.5695104,23.976576 C68.4696873,25.1206963 67.2917368,26.1870567 66.04416,27.1679616 C66.04416,27.1934208 66.04416,27.21888 66.04416,27.2428416 C67.5911808,26.1271296 69.219072,24.5067264 69.8825088,23.8253184 C69.8570496,22.72608 69.7911552,21.6747648 69.6788352,20.6803584 C69.6114432,20.7762048 69.518592,20.9184768 69.3957888,21.0966912 L69.3897984,21.0966912 Z M69.03936,31.6487808 C68.6365056,31.8973824 67.9521024,32.2972416 67.09248,32.7315456 C68.1048576,32.2388352 68.8985856,31.7745792 69.3478656,31.4975232 C69.533568,30.3992832 69.6718464,29.2885632 69.7627008,28.1653632 L69.4467072,28.4364288 C69.3568512,29.5206912 69.2250624,30.5944704 69.03936,31.6487808 Z M29.0115072,23.7624192 C29.495232,24.3090432 29.9250432,24.7508352 30.2829696,25.0967808 C30.3024384,25.75872 30.3458688,26.4071808 30.4027776,27.0436608 C30.5165952,27.129024 30.6289152,27.211392 30.7412352,27.2922624 C30.66336,26.5239936 30.610944,25.7422464 30.5914752,24.942528 C30.2335488,24.5950848 29.8037376,24.1547904 29.3200128,23.6081664 C28.4848092,22.6894116 27.7217624,21.7075646 27.0376704,20.6713728 C27.0182016,20.846592 27.0077184,21.0322944 26.9912448,21.2105088 C27.6121507,22.1014326 28.2868244,22.953652 29.0115072,23.7624192 L29.0115072,23.7624192 Z M32.6282112,24.7583232 C32.6282112,24.8556672 32.6282112,24.9530112 32.6282112,25.0578432 C32.6985984,24.9859584 32.8019328,24.8856192 32.9277312,24.7583232 C32.9277312,24.7074048 32.9277312,24.6564864 32.9277312,24.6085632 C32.9306376,23.4402181 33.0126943,22.2734121 33.1733376,21.11616 C33.6880297,20.7809205 34.2226645,20.4773439 34.774272,20.2071168 C34.1168497,20.518074 33.4805047,20.8717658 32.8693248,21.26592 C32.7101342,22.4232691 32.6295783,23.590078 32.6282112,24.7583232 Z M42.3506304,39.4213248 C41.7778752,38.720284 41.2554075,37.979621 40.787136,37.2048768 C40.7377152,37.3336704 40.689792,37.4684544 40.637376,37.6062336 C41.0636142,38.2910666 41.5333267,38.9478636 42.0436224,39.5725824 C41.6991744,40.6838016 41.0537088,42.8268672 40.817088,44.0653824 C41.6123136,44.8950528 42.4479744,45.6812928 43.3120896,46.4270976 C43.3345536,46.3087872 43.3570176,46.185984 43.3809792,46.0631808 C42.6007296,45.3787776 41.842944,44.66592 41.1211008,43.9141248 C41.3607168,42.6816 42.0061824,40.532544 42.3506304,39.4213248 Z M34.2096768,15.7248 C33.8204142,16.8344734 33.4988378,17.9667424 33.24672,19.1153664 C33.8547456,18.8158464 35.9214336,17.82144 37.5792768,17.1684864 C37.442496,17.786496 37.3236864,18.4144896 37.222848,19.0524672 L37.522368,18.922176 C37.622208,18.2762112 37.7425152,17.6407296 37.8832896,17.0157312 C36.2254464,17.664192 34.160256,18.6630912 33.5507328,18.9626112 C33.7993217,17.8274255 34.1158856,16.7081997 34.4987136,15.6109824 C34.3968768,15.6514176 34.29504,15.6888576 34.2096768,15.7248 Z M35.64288,36.1700352 C35.1474665,35.1661694 34.7153144,34.1323054 34.3489536,33.074496 C35.1621504,31.71168 36.721152,30.079296 37.6736256,29.1298176 C37.5238656,28.3660416 37.3905792,27.585792 37.3007232,26.7890688 L37.013184,27.0646272 C37.10304,27.8174208 37.2218496,28.5562368 37.3696128,29.2810752 C36.4171392,30.2245632 34.8581376,31.8629376 34.0449408,33.2272512 C34.4385716,34.3667401 34.9083801,35.4784703 35.4511872,36.5549184 C35.49312,36.4710528 35.5620096,36.3362688 35.64288,36.1700352 Z M39.2161536,6.58944 C38.5632,7.428096 37.9536768,8.2937088 37.387584,9.1862784 C38.0150784,9.0649728 39.6819072,8.753472 40.9908096,8.5872384 C40.7137536,9.0215424 40.450176,9.4857984 40.195584,9.9545472 L40.4307072,9.9275904 C40.7062656,9.4054272 40.994304,8.9062272 41.2948224,8.4299904 C39.98592,8.5917312 38.3205888,8.9047296 37.6915968,9.0290304 C38.2277376,8.184384 38.8073088,7.3622016 39.4228224,6.5654784 L39.2161536,6.58944 Z M37.2557952,42.9481728 C35.0368528,42.8475889 32.8334679,42.5260111 30.678336,41.9882112 C30.7202688,42.075072 30.7636992,42.15744 30.805632,42.2428032 C32.9614576,42.7549191 35.1637777,43.0464543 37.3785984,43.1129088 C37.3366656,43.0589952 37.29024,43.0020864 37.2557952,42.9481728 Z M37.5328512,48.3260544 C36.196992,48.312576 35.2505088,48.2646528 34.6364928,48.2197248 C34.6904064,48.282624 34.7458176,48.3410304 34.7997312,48.402432 C35.3987712,48.4368768 36.1924992,48.4668288 37.2288384,48.477312 C38.8908503,48.4751215 40.5512143,48.3725991 42.2008704,48.170304 L42.08256,48.07296 C40.5719535,48.2427787 39.0529726,48.3272776 37.5328512,48.3260544 L37.5328512,48.3260544 Z M38.9810304,41.977728 C39.004992,41.89536 39.0454272,41.7590784 39.0978432,41.5868544 C38.3578754,40.6627114 37.6718335,39.6966523 37.043136,38.6934912 C37.5807744,37.3561344 38.7369216,35.350848 39.319488,34.3684224 C38.9693594,33.5614466 38.6604556,32.7372034 38.3939712,31.89888 C38.3131008,32.0052096 38.233728,32.1175296 38.1528576,32.2313472 C38.4104448,33.0235776 38.697984,33.7888512 39.0154752,34.51968 C38.4329088,35.500608 37.2767616,37.51488 36.7391232,38.8447488 C37.4205302,39.9346916 38.1692876,40.9810513 38.9810304,41.977728 L38.9810304,41.977728 Z M33.6480768,30.6573696 C33.3619894,29.4586096 33.1618011,28.2409642 33.0490368,27.0137088 C34.4927232,25.4082816 36.42912,24.1532928 37.1419776,23.7189888 C37.1419776,23.0360832 37.1669376,22.3576704 37.2168576,21.6837504 C37.1135232,21.7406592 37.013184,21.7990656 36.9173376,21.8589696 C36.8704128,22.5249024 36.8454528,23.195328 36.8424576,23.8702464 C36.1296,24.306048 34.1932032,25.5595392 32.7495168,27.1649664 C32.8676888,28.4573663 33.0834597,29.7389749 33.3949824,30.9988224 L33.6480768,30.6573696 Z M30.910464,18.57024 C30.7816704,19.1528064 30.6798336,19.7368704 30.58848,20.3179392 C30.6663552,20.4167808 30.73824,20.51712 30.8221056,20.6174592 C30.9219456,19.8876288 31.052736,19.1558016 31.2144768,18.4219776 C30.2826424,16.8440411 29.4648632,15.2014759 28.7673984,13.5068544 C28.7074944,13.6566144 28.6550784,13.8183552 28.5981696,13.9711104 C29.2630332,15.5551451 30.0356057,17.0917839 30.910464,18.57024 L30.910464,18.57024 Z M41.7366144,3.7185408 C41.1904896,4.2726528 40.6653312,4.844736 40.1611392,5.4347904 C41.3764314,5.29375638 42.5993854,5.22923243 43.8227712,5.2416 C43.436368,5.57323381 43.0712296,5.92886859 42.7295232,6.3063936 L42.8882688,6.3063936 C43.2723868,5.87325844 43.6862281,5.46742378 44.126784,5.09184 C42.903383,5.08070842 41.680475,5.14573011 40.465152,5.286528 C40.9683456,4.6979712 41.4940032,4.1243904 42.0406272,3.571776 C42.8972544,2.7016704 42.8118912,1.475136 42.8118912,1.475136 C42.7085568,1.5604992 42.6112128,1.6503552 42.5123712,1.737216 C42.5078784,2.0592 42.4404864,3.0086784 41.7366144,3.721536 L41.7366144,3.7185408 Z M32.9472,12.4540416 C32.6985984,13.0051584 32.4724608,13.5637632 32.258304,14.1238656 C32.303232,14.2152192 32.3496576,14.3080704 32.3960832,14.3979264 C32.655168,13.6940544 32.939712,12.9931776 33.2512128,12.3012864 C32.7128944,10.8388678 32.2736043,9.34187909 31.93632,7.8204672 C31.8479616,7.9402752 31.7655936,8.064576 31.6802304,8.1858816 C32.0127254,9.63373785 32.4358826,11.0592674 32.9472,12.4540416 L32.9472,12.4540416 Z M39.2131584,3.2063616 C38.8956672,3.5328384 38.593152,3.871296 38.2921344,4.2097536 C38.2921344,4.2636672 38.2921344,4.3235712 38.3056128,4.3744896 C38.6949888,3.9232128 39.0988416,3.4829184 39.5171712,3.0536064 C39.6010368,1.7491968 39.7957248,0.456768 39.8706048,0 C39.8092032,0.0494208 39.6893952,0.14976 39.5456256,0.2830464 C39.4602624,0.8206848 39.289536,2.0037888 39.2116608,3.2063616 L39.2131584,3.2063616 Z M35.9813376,7.1180928 C35.6893056,7.5359232 35.410752,7.959744 35.1396864,8.3880576 C35.1576576,8.4674304 35.1771264,8.5468032 35.1965952,8.6231808 C35.5410432,8.06208 35.9039616,7.5094656 36.2853504,6.9653376 C36.1095644,5.7769323 35.995096,4.58026277 35.9424,3.3800832 C35.8420608,3.4759296 35.7462144,3.5777664 35.64288,3.6796032 C35.710272,5.0514048 35.8480512,6.2345088 35.9813376,7.1180928 Z" id="Shape" fill="url(#linearGradient-3)"></path>
                    <path d="M60.5299968,88.2490752 L66.6237312,88.2490752 L66.6237312,89.5969152 L58.3794432,89.5969152 L58.3794432,80.3117952 L66.2792832,80.3117952 L66.2792832,81.6461568 L60.5299968,81.6461568 L60.5299968,84.082752 L64.157184,84.082752 L64.157184,85.4021376 L60.5299968,85.4021376 L60.5299968,88.2490752 Z M5.8061952,85.1969664 L2.7241344,80.3073024 L0,80.3073024 L0,89.5924224 L1.5485184,89.5924224 L1.5485184,82.645056 L5.031936,88.178688 L5.548608,88.178688 L8.7879168,82.6585344 L8.7879168,89.5984128 L10.93248,89.5984128 L10.93248,80.3132928 L8.6740992,80.3132928 L5.8061952,85.1969664 Z M22.3576704,80.3073024 L20.2490496,80.3073024 L15.8476032,89.5924224 L17.5398912,89.5924224 L18.502848,87.3969408 L23.1873408,87.3969408 L24.2191872,89.5924224 L26.7276672,89.5924224 L22.3576704,80.3073024 Z M19.0015488,86.239296 L20.764224,82.285632 L22.628736,86.239296 L19.0015488,86.239296 Z M44.7273216,81.641664 L47.8827648,81.641664 L47.8827648,89.5984128 L50.01984,89.5984128 L50.01984,81.641664 L53.2306944,81.641664 L53.2306944,80.3073024 L44.7273216,80.3073024 L44.7273216,81.641664 Z M92.3659776,83.6903808 C90.9612288,83.5915392 89.1536256,83.5765632 89.1536256,82.5147648 C89.1536256,81.4529664 90.4011264,81.28224 91.39104,81.28224 C92.7729658,81.2936597 94.1276192,81.6680874 95.3192448,82.368 L96.1069824,81.2627712 C95.0047488,80.5469184 93.570048,80.001792 91.406016,80.001792 C89.3977344,80.001792 87.1183872,80.750592 87.1183872,83.0703744 C87.1183872,85.2344064 89.8574976,85.7795328 91.7774208,85.8663936 C93.1686912,85.9233024 94.6453248,85.9951872 94.6453248,87.0989184 C94.6453248,88.2595584 93.4472448,88.575552 91.8493056,88.575552 C90.2814931,88.5766046 88.7616873,88.034724 87.5481984,87.0420096 L86.6496384,88.1307648 C87.7398912,88.9634304 89.4321792,89.8515072 91.9122048,89.8515072 C94.0627584,89.8515072 96.715008,89.077248 96.715008,86.5567872 C96.7105152,84.2789376 94.2304896,83.8191744 92.3659776,83.6903808 L92.3659776,83.6903808 Z M79.22304,85.3796736 C80.0122752,85.2928128 80.75808,85.0067712 81.2448,84.5350272 C81.6428295,84.1566731 81.8744379,83.6358233 81.888768,83.086848 C81.9075979,82.4129471 81.661325,81.7585496 81.2028672,81.2642688 C80.4989952,80.578368 79.5809664,80.3073024 77.530752,80.3073024 L72.2352384,80.3073024 L72.2352384,89.5924224 L74.385792,89.5924224 L74.385792,85.6986624 L76.8523392,85.6986624 L79.3024128,89.5924224 L81.9681408,89.5924224 L79.22304,85.3796736 Z M74.39328,84.4811136 L74.39328,81.551808 L77.20128,81.551808 C78.4937088,81.551808 79.5689856,81.7554816 79.5689856,83.0284416 C79.5689856,83.9734272 78.6704256,84.4766208 77.530752,84.4766208 L74.39328,84.4811136 Z M36.2733696,83.6948736 C34.8686208,83.596032 33.0625152,83.581056 33.0625152,82.5192576 C33.0625152,81.4574592 34.310016,81.2867328 35.298432,81.2867328 C36.6774051,81.2980978 38.0292835,81.6709229 39.2191488,82.368 L40.008384,81.2627712 C38.9046528,80.5469184 37.469952,80.001792 35.30592,80.001792 C33.2976384,80.001792 31.0182912,80.750592 31.0182912,83.0703744 C31.0182912,85.2344064 33.7574016,85.7795328 35.6773248,85.8663936 C37.0685952,85.9233024 38.5452288,85.9951872 38.5452288,87.0989184 C38.5452288,88.2595584 37.3471488,88.575552 35.7492096,88.575552 C34.1825042,88.5772796 32.6634249,88.0370567 31.4496,87.0465024 L30.55104,88.1352576 C31.6412928,88.9679232 33.3335808,89.856 35.8136064,89.856 C37.96416,89.856 40.6164096,89.0817408 40.6164096,86.56128 C40.6104192,84.2789376 38.1303936,83.8191744 36.2658816,83.6903808 L36.2733696,83.6948736 Z M78.713856,70.229952 L75.6602496,65.9707776 L73.0139904,65.9707776 L77.186304,71.562816 L77.186304,75.261888 L79.3368576,75.261888 L79.3368576,71.562816 L83.6095104,65.9707776 L81.6731136,65.9707776 L78.713856,70.229952 Z M20.0888064,71.0446464 C20.8780416,70.9592832 21.6238464,70.671744 22.1105664,70.2014976 C22.506792,69.8212553 22.7380151,69.3007343 22.7545344,68.7518208 C22.7727251,68.0781975 22.5259095,67.4243242 22.067136,66.9307392 C21.3647616,66.2433408 20.4452352,65.96928 18.3965184,65.96928 L13.0995072,65.96928 L13.0995072,75.2544 L15.2470656,75.2544 L15.2470656,71.3711232 L17.7136128,71.3711232 L20.1666816,75.2544 L22.8339072,75.2544 L20.0888064,71.0446464 Z M15.2545536,70.1460864 L15.2545536,67.212288 L18.0655488,67.212288 C19.3579776,67.212288 20.4302592,67.4129664 20.4302592,68.6889216 C20.4302592,69.6354048 19.5421824,70.1371008 18.3965184,70.1371008 L15.2545536,70.1460864 Z M36.6807168,74.4202368 C37.5792768,73.5890688 37.7559936,72.5856768 37.7559936,71.6391936 L37.7559936,65.9662848 L36.1999872,65.9662848 L36.1999872,71.443008 C36.1999872,73.0484352 35.425728,74.2390272 33.3320832,74.2390272 C31.4690688,74.2390272 30.6663552,73.0409472 30.6663552,71.4864384 L30.6663552,65.9662848 L28.52928,65.9662848 L28.52928,71.630208 C28.52928,72.7489152 28.6445952,73.636992 29.5910784,74.483136 C30.2934528,75.0986496 31.397184,75.5584128 33.1613568,75.5584128 C34.9255296,75.5584128 35.9858304,75.0417408 36.6732288,74.4112512 L36.6807168,74.4202368 Z M51.1864704,73.3824 C50.5657642,73.9839911 49.7276636,74.308208 48.8636928,74.28096 C46.9557504,74.28096 45.5225472,72.9196416 45.5225472,70.7256576 C45.5225472,68.4882432 46.7565696,66.882816 48.7199232,66.882816 C50.2175232,66.882816 51.2149248,67.54176 52.2617472,68.3309952 L53.2786176,67.2991488 C52.0176384,66.2807808 50.7132288,65.6353152 48.7334016,65.6353152 C45.4791168,65.6353152 42.9706368,67.7723904 42.9706368,70.7271552 C42.9706368,73.6235136 45.6947712,75.5733888 48.6061056,75.5733888 C51.0277248,75.5733888 52.1898624,74.7407232 53.4074112,73.7238528 L53.4074112,70.3872 L51.1864704,70.3872 L51.1864704,73.3824 Z M66.628224,70.3872 L66.628224,70.3003392 C67.676544,70.1865216 68.8940928,69.5275776 68.8940928,68.305536 C68.9066544,67.8207379 68.7317839,67.3497678 68.4058752,66.9906432 C67.8068352,66.3002496 66.7585152,65.9707776 64.7083008,65.9707776 L59.6164608,65.9707776 L59.6164608,75.2558976 L65.392704,75.2558976 C67.0730112,75.2558976 68.1018624,74.8710144 68.717376,74.2390272 C69.1216565,73.8256698 69.3452118,73.2686671 69.33888,72.6905088 C69.33888,71.083584 67.69152,70.4515968 66.628224,70.3872 Z M61.7715072,67.24224 L64.0478592,67.24224 C65.5559424,67.24224 66.5293824,67.3830144 66.5293824,68.5721088 C66.5293824,69.421248 65.9558016,69.8375808 64.5076224,69.8375808 L61.7715072,69.8375808 L61.7715072,67.24224 Z M64.5345792,74.0068992 L61.7715072,74.0068992 L61.7715072,71.0401536 L64.7352576,71.0401536 C66.298752,71.0401536 66.8873088,71.6391936 66.8873088,72.5766912 C66.8873088,73.8526464 65.8704384,73.9934208 64.5345792,73.9934208 L64.5345792,74.0068992 Z" id="Shape" fill="#141630"></path>
                </g>
            </g>
        </g>
    </g>
</svg>