<?xml version="1.0" encoding="UTF-8"?>
<svg width="59px" height="59px" viewBox="0 0 59 59" version="1.1" xmlns="http://www.w3.org/2000/svg" xmlns:xlink="http://www.w3.org/1999/xlink">
    <title>4EEE5D2D-40AF-4520-B8D7-83E2A2E68DF4</title>
    <defs>
        <linearGradient x1="42.2685149%" y1="143.877475%" x2="46.1750882%" y2="-75.6690145%" id="linearGradient-1">
            <stop stop-color="#E15B11" offset="0%"></stop>
            <stop stop-color="#EB9845" offset="54%"></stop>
            <stop stop-color="#EF7D3F" offset="100%"></stop>
        </linearGradient>
    </defs>
    <g id="Mobile-UI-" stroke="none" stroke-width="1" fill="none" fill-rule="evenodd">
        <g id="Class-Details" transform="translate(-177.000000, -647.000000)" fill="url(#linearGradient-1)" fill-rule="nonzero">
            <g id="mobile_video_play_button" transform="translate(177.000000, 647.000000)">
                <path d="M29.5,1.87583282e-12 C45.7923136,1.87583282e-12 59,13.2076059 59,29.5 C59,45.7923136 45.7923136,59 29.5,59 C13.2076059,59 0,45.7923136 0,29.5 C0,13.2076059 13.2076059,1.87583282e-12 29.5,1.87583282e-12 Z M29.5,5.36363636 C16.1698618,5.36363636 5.36363636,16.1698618 5.36363636,29.5 C5.36363636,42.8302455 16.1698618,53.6363636 29.5,53.6363636 C42.8302455,53.6363636 53.6363636,42.8302455 53.6363636,29.5 C53.6363636,16.1698618 42.8302455,5.36363636 29.5,5.36363636 Z M24.1363636,17.8873786 L40.2272727,29.5 L24.1363636,41.1125409 L24.1363636,17.8873786 Z" id="Combined-Shape"></path>
            </g>
        </g>
    </g>
</svg>